<svg width="71" height="71" viewBox="0 0 71 71" fill="none" xmlns="http://www.w3.org/2000/svg">
<g filter="url(#filter0_d)">
<rect x="20" y="20" width="34" height="29" fill="white"/>
<path d="M12.1406 10.1094H58.8594C59.9829 10.1094 60.8906 11.0171 60.8906 12.1406V58.8594C60.8906 59.9829 59.9829 60.8906 58.8594 60.8906H12.1406C11.0171 60.8906 10.1094 59.9829 10.1094 58.8594V12.1406C10.1094 11.0171 11.0171 10.1094 12.1406 10.1094ZM28.3906 27.1782C28.3906 27.8257 28.7017 28.4414 29.2285 28.8223L38.458 35.5L29.2285 42.1777C28.7017 42.5586 28.3906 43.168 28.3906 43.8218V46.7988C28.3906 47.2114 28.8604 47.4526 29.1968 47.2114L44.812 35.9126C44.8769 35.8658 44.9297 35.8043 44.9662 35.7332C45.0026 35.662 45.0216 35.5831 45.0216 35.5032C45.0216 35.4232 45.0026 35.3444 44.9662 35.2732C44.9297 35.202 44.8769 35.1405 44.812 35.0938L29.1968 23.7949C28.8604 23.5537 28.3906 23.7949 28.3906 24.2075V27.1782Z" fill="#F21C1C"/>
</g>
<defs>
<filter id="filter0_d" x="-7" y="-7" width="85" height="85" filterUnits="userSpaceOnUse" color-interpolation-filters="sRGB">
<feFlood flood-opacity="0" result="BackgroundImageFix"/>
<feColorMatrix in="SourceAlpha" type="matrix" values="0 0 0 0 0 0 0 0 0 0 0 0 0 0 0 0 0 0 127 0"/>
<feOffset/>
<feGaussianBlur stdDeviation="5"/>
<feColorMatrix type="matrix" values="0 0 0 0 1 0 0 0 0 0.366667 0 0 0 0 0.366667 0 0 0 1 0"/>
<feBlend mode="normal" in2="BackgroundImageFix" result="effect1_dropShadow"/>
<feBlend mode="normal" in="SourceGraphic" in2="effect1_dropShadow" result="shape"/>
</filter>
</defs>
</svg>
