<svg width="65" height="65" viewBox="0 0 65 65" fill="none" xmlns="http://www.w3.org/2000/svg">
<path d="M9.14062 7.10938H55.8594C56.9829 7.10938 57.8906 8.01709 57.8906 9.14062V55.8594C57.8906 56.9829 56.9829 57.8906 55.8594 57.8906H9.14062C8.01709 57.8906 7.10938 56.9829 7.10938 55.8594V9.14062C7.10938 8.01709 8.01709 7.10938 9.14062 7.10938ZM25.3906 24.1782C25.3906 24.8257 25.7017 25.4414 26.2285 25.8223L35.458 32.5L26.2285 39.1777C25.7017 39.5586 25.3906 40.168 25.3906 40.8218V43.7988C25.3906 44.2114 25.8604 44.4526 26.1968 44.2114L41.812 32.9126C41.8769 32.8658 41.9297 32.8043 41.9662 32.7332C42.0026 32.662 42.0216 32.5831 42.0216 32.5032C42.0216 32.4232 42.0026 32.3444 41.9662 32.2732C41.9297 32.202 41.8769 32.1405 41.812 32.0938L26.1968 20.7949C25.8604 20.5537 25.3906 20.7949 25.3906 21.2075V24.1782Z" fill="#E7E8EC"/>
</svg>
