<svg width="1029" height="1029" viewBox="0 0 1029 1029" fill="none" xmlns="http://www.w3.org/2000/svg">
<path d="M477 71.4244C453.169 74.5534 429.576 76.2485 406 81.6512C344.297 95.7911 285.088 124.041 235 162.651C188.917 198.174 149.548 242.469 120.579 293C12.0557 482.294 56.1851 731.214 228 867.996C275.604 905.894 330.512 933.513 389 950.091C446.559 966.405 508.85 969.075 568 961.715C630.446 953.946 690.39 931.359 744 898.797C788.616 871.698 829.27 835.558 860.87 794C983.446 632.791 987.148 404.171 861.576 243C834.383 208.098 802.237 177.16 766 151.721C725.862 123.542 681.151 101.843 634 88.2909C585.058 74.2239 528.004 64.7274 477 71.4244Z" fill="white"/>
<path d="M139 724C150.838 715.661 160.764 703.236 171 693C203.741 660.259 233.008 624.416 264.961 591C272.796 582.806 279.341 572.617 288.004 565.326C301.078 554.321 316.209 563.432 328.996 554.211C346.723 541.427 352.872 520.229 375 511.814C404.654 500.538 420.938 526.068 441 543.271C448.024 549.293 461.459 564.208 471.985 558.821C478.296 555.592 482.483 546.668 486.344 541C493.801 530.052 501.999 519.254 510.884 509.424C526.307 492.363 545.286 489.612 564 477.935C585.119 464.757 602.179 445.731 623 432.003C633.989 424.758 647.342 417.728 661 419.174C672.24 420.363 683.072 426.789 693 431.753C716.095 443.3 736.274 458.16 758 471.947C810.642 505.352 866.39 536.29 928 549C931.911 535.77 929.636 518.629 929.039 505C927.703 474.485 924.31 444.752 916.873 415C877.546 257.65 745.164 131.311 585 102.424C405.694 70.0858 222.438 156.915 135.309 318C104.383 375.175 91.9095 435.119 85.8303 499C80.3818 556.254 92.9519 618.881 114.2 672C121.245 689.612 128.517 708.105 139 724ZM666 464C661.877 475.315 667.303 490.747 678.001 496.911C684.445 500.624 692.409 501.162 699 504.876C706.308 508.993 712.831 516.83 721 519.043C728.143 520.978 748.133 515.304 748.133 528.985C748.133 536.685 734.172 536.897 729 537.576C720.798 538.653 713.117 535.398 705 535.039C694.6 534.58 684.419 537.049 674 536.999C668.102 536.971 661.986 536.694 659 531C664.386 529.885 680.928 523.639 672.552 515.564C667.777 510.961 657.999 513.568 652 511.452C640.623 507.44 635.987 498.597 630.073 489.004C627.607 485.002 621.669 477.381 616.104 480.072C611.411 482.341 609.112 489.582 607.139 494C601.962 505.592 596.644 517.193 589.936 528C571.299 558.022 539.354 575.605 516.424 602C508.022 611.673 495.033 631.37 482 634C483.717 624.485 491.454 615.576 497.127 608C511.894 588.28 530.6 572.291 545.789 553C552.282 544.754 565.863 526.491 561.257 515.044C557.427 505.525 543.621 511.765 538 515.789C521.963 527.269 511.851 550.802 500.999 567C486.957 587.96 473.399 609.671 455.91 627.985C408.548 677.584 344.64 711.626 279 728.884C258.865 734.178 236.948 741.568 216 742C219.001 736.263 226.281 734.976 232 732.808C245.636 727.639 259.451 723.02 273 717.6C318.572 699.371 363.697 677.173 402 646.195C414.432 636.141 425.822 623.243 434.783 610C439.508 603.018 442.756 594.842 437.995 587C431.828 576.845 419.029 571.469 408 568.63C400.637 566.734 392.648 564.742 385 565.04C341.869 566.721 326.918 608.199 310.244 641C305.157 651.007 292.775 680.654 284 661C264.72 668.804 256.498 695.593 233 698C234.964 688.236 245.701 679.481 251.919 672C266.236 654.774 287.704 632.299 293 610L292 609C269.297 614.395 251.697 636.303 236 652C207.922 680.078 178.026 711.5 143 731C164.872 777.791 207.895 820.165 248 851.424C411.9 979.176 649.842 966.544 800 822.961C838.086 786.542 868.468 742.592 890.78 695C911.074 651.712 924.234 603.72 928 556C877.461 556 828.899 529.04 782 512.695C767.696 507.71 752.814 502.869 738 499.662C729.084 497.732 719.474 497.704 711 494.124C694.375 487.102 683.624 469.186 666 464Z" fill="#333333"/>
</svg>
