<?xml version="1.0" encoding="utf-8"?>
<!DOCTYPE svg PUBLIC "-//W3C//DTD SVG 1.1//EN" "http://www.w3.org/Graphics/SVG/1.1/DTD/svg11.dtd">
<svg>
<symbol id="logo" viewBox="0 0 95 44" fill="none" xmlns="http://www.w3.org/2000/svg">
<path fill-rule="evenodd" clip-rule="evenodd" d="M51.5731 44H95V34.2213H62.4282V9.77587H95V0H51.5731V44Z" fill="currentColor"/>
<path fill-rule="evenodd" clip-rule="evenodd" d="M0 9.77587H32.5718V44H43.4301V0H0V9.77587Z" fill="currentColor"/>
</symbol>

<symbol id="phone" viewBox="0 0 30 30" fill="none" xmlns="http://www.w3.org/2000/svg">
<g clip-path="url(#clip0)">
<path d="M29.775 7.23746L28.6312 4.78121C28.4893 4.4793 28.2826 4.21229 28.026 3.99909C27.7694 3.78589 27.469 3.63171 27.1462 3.54746C23.5125 2.55746 19.3444 1.95183 15.0469 1.87683C10.8114 1.94259 6.60016 2.53078 2.50873 3.62808C2.19936 3.71808 1.65936 4.17183 1.37436 4.76996L0.224983 7.23933C0.0774443 7.54322 0.000526431 7.87653 -1.70897e-05 8.21433V9.84558L-0.00189209 9.92246C-0.00189209 10.6575 0.594358 11.2537 1.32936 11.2537L1.39123 11.2518H6.11248C6.48454 11.243 6.83838 11.089 7.09836 10.8227C7.35835 10.5564 7.50384 10.199 7.50373 9.82683L7.49998 9.72746V8.15621V8.13371C7.50012 7.92996 7.55134 7.7295 7.64895 7.55066C7.74656 7.37181 7.88745 7.22029 8.05873 7.10996C10.2015 5.9718 12.6208 5.45794 15.0412 5.62683C17.4564 5.4639 19.8693 5.97544 22.0106 7.10433C22.2787 7.28996 22.5019 7.66683 22.5019 8.09621V9.73121C22.4892 9.9228 22.5153 10.115 22.5788 10.2962C22.6422 10.4775 22.7416 10.644 22.871 10.7859C23.0005 10.9277 23.1572 11.0419 23.3319 11.1217C23.5065 11.2014 23.6955 11.2451 23.8875 11.25H28.6144L28.6725 11.2518C29.0256 11.2518 29.3642 11.1116 29.6138 10.8619C29.8635 10.6123 30.0037 10.2737 30.0037 9.92058L30.0019 9.83996V8.21246C30.0007 7.86988 29.9218 7.53203 29.7712 7.22433L29.775 7.23746Z" fill="currentColor"/>
<path d="M22.5 15.5625C21.2797 13.9987 20.6189 12.071 20.6231 10.0875L20.625 9.93V9.375H18.75V11.25H11.25V9.375H9.375V9.99375L9.37687 10.1437C9.37958 12.1352 8.71333 14.0699 7.485 15.6375L1.875 22.5V28.125H28.125V22.5L22.5 15.5625ZM15 24.375C13.5082 24.375 12.0774 23.7824 11.0225 22.7275C9.96763 21.6726 9.375 20.2418 9.375 18.75C9.375 17.2582 9.96763 15.8274 11.0225 14.7725C12.0774 13.7176 13.5082 13.125 15 13.125C16.4918 13.125 17.9226 13.7176 18.9775 14.7725C20.0324 15.8274 20.625 17.2582 20.625 18.75C20.625 20.2418 20.0324 21.6726 18.9775 22.7275C17.9226 23.7824 16.4918 24.375 15 24.375Z" fill="currentColor"/>
<path d="M18.75 18.7499C18.7613 19.2493 18.6727 19.7459 18.4894 20.2106C18.3062 20.6753 18.0319 21.0987 17.6828 21.4559C17.3336 21.8131 16.9166 22.097 16.4562 22.2908C15.9959 22.4847 15.5014 22.5846 15.0019 22.5847C14.5024 22.5848 14.0079 22.4852 13.5474 22.2916C13.087 22.0979 12.6698 21.8143 12.3205 21.4572C11.9712 21.1002 11.6967 20.6769 11.5132 20.2124C11.3297 19.7478 11.2408 19.2512 11.2519 18.7518C11.2736 17.772 11.6779 16.8396 12.3785 16.1542C13.079 15.4689 14.02 15.085 15 15.0847C15.9801 15.0845 16.9213 15.4679 17.6221 16.1529C18.323 16.838 18.7279 17.7701 18.75 18.7499Z" fill="currentColor"/>
</g>
<defs>
<clipPath id="clip0">
<rect width="30" height="30" fill="currentColor"/>
</clipPath>
</defs>
</symbol>

<symbol id="time1" width="95" height="95" viewBox="0 0 95 95" fill="none" xmlns="http://www.w3.org/2000/svg">
<path d="M51.9648 42.7397V29.9963C51.9648 29.1874 51.309 28.5314 50.5 28.5314C49.691 28.5314 49.0352 29.1874 49.0352 29.9963V42.7397C48.7338 42.8326 48.4451 42.9538 48.171 43.0994L44.1383 39.0667C43.5663 38.4949 42.6388 38.4949 42.0666 39.0667C41.4946 39.6388 41.4946 40.5663 42.0666 41.1385L46.0993 45.1712C45.7299 45.8665 45.5195 46.659 45.5195 47.5C45.5195 50.2463 47.7537 52.4805 50.5 52.4805C53.2463 52.4805 55.4805 50.2463 55.4805 47.5C55.4805 45.2633 53.9983 43.3666 51.9648 42.7397ZM50.5 49.5508C49.3691 49.5508 48.4492 48.6308 48.4492 47.5C48.4492 46.3691 49.3691 45.4492 50.5 45.4492C51.6309 45.4492 52.5508 46.3691 52.5508 47.5C52.5508 48.6307 51.6309 49.5508 50.5 49.5508Z" fill="#0D1118"/>
<path d="M51.4785 70.8291C51.2061 70.5565 50.8281 70.3999 50.4429 70.3999C50.0576 70.3999 49.6797 70.5565 49.4072 70.8291C49.1348 71.1015 48.978 71.4795 48.978 71.8647C48.978 72.2514 49.1348 72.6279 49.4072 72.9002C49.6797 73.1741 50.0576 73.3296 50.4429 73.3296C50.8281 73.3296 51.2061 73.1741 51.4785 72.9002C51.751 72.6279 51.9077 72.25 51.9077 71.8647C51.9077 71.4795 51.751 71.1015 51.4785 70.8291Z" fill="#0D1118"/>
<path d="M34.2505 63.6924C33.978 63.4199 33.6001 63.263 33.2148 63.263C32.8281 63.263 32.4517 63.4198 32.1792 63.6924C31.9053 63.9647 31.75 64.3426 31.75 64.7295C31.75 65.1147 31.9053 65.4927 32.1792 65.765C32.4517 66.0374 32.8281 66.1943 33.2148 66.1943C33.6001 66.1943 33.9766 66.0376 34.2505 65.765C34.523 65.4911 34.6797 65.1147 34.6797 64.7295C34.6797 64.3426 34.523 63.9663 34.2505 63.6924Z" fill="#0D1118"/>
<path d="M27.1138 46.4642C26.8413 46.1917 26.4634 46.035 26.0781 46.035C25.6929 46.035 25.3149 46.1917 25.0425 46.4642C24.7686 46.7366 24.6133 47.1146 24.6133 47.4998C24.6133 47.8851 24.7686 48.263 25.0425 48.5353C25.3149 48.8078 25.6929 48.9647 26.0781 48.9647C26.4634 48.9647 26.8413 48.8079 27.1138 48.5353C27.3862 48.263 27.543 47.8851 27.543 47.4998C27.543 47.1146 27.3862 46.7366 27.1138 46.4642Z" fill="#0D1118"/>
<path d="M34.2505 29.2348C33.978 28.9625 33.6001 28.8056 33.2148 28.8056C32.8281 28.8056 32.4517 28.9624 32.1792 29.2348C31.9053 29.5088 31.75 29.8852 31.75 30.2705C31.75 30.6557 31.9053 31.0337 32.1792 31.3076C32.4517 31.5799 32.8281 31.7368 33.2148 31.7368C33.6001 31.7366 33.9766 31.5799 34.2505 31.3076C34.523 31.0337 34.6797 30.6572 34.6797 30.2705C34.6797 29.8852 34.523 29.5073 34.2505 29.2348Z" fill="#0D1118"/>
<path d="M51.4785 22.0996C51.2061 21.8257 50.8296 21.6704 50.4429 21.6704C50.0576 21.6704 49.6797 21.8257 49.4072 22.0996C49.1348 22.372 48.978 22.7487 48.978 23.1352C48.978 23.5205 49.1348 23.8984 49.4072 24.1709C49.6797 24.4432 50.0576 24.6001 50.4429 24.6001C50.8296 24.6001 51.2061 24.4433 51.4785 24.1709C51.751 23.8984 51.9077 23.5205 51.9077 23.1352C51.9077 22.75 51.751 22.372 51.4785 22.0996Z" fill="#0D1118"/>
<path d="M68.708 63.6924C68.4355 63.4199 68.0576 63.263 67.6724 63.263C67.2856 63.263 66.9092 63.4198 66.6352 63.6924C66.3628 63.9663 66.2075 64.3426 66.2075 64.7295C66.2075 65.1147 66.3628 65.4911 66.6352 65.765C66.9092 66.0374 67.2871 66.1943 67.6724 66.1943C68.0576 66.1943 68.4355 66.0376 68.708 65.765C68.9805 65.4911 69.1372 65.1147 69.1372 64.7295C69.1372 64.3426 68.9805 63.9663 68.708 63.6924Z" fill="#0D1118"/>
<path d="M86.5352 46.0352H79.7969C78.9878 46.0352 78.332 46.6911 78.332 47.5C78.332 62.8466 65.8467 75.3319 50.5002 75.3321C43.0428 75.3321 36.0471 72.4434 30.8018 67.1982C25.5566 61.9529 22.668 54.9571 22.668 47.4999C22.6681 32.1533 35.1534 19.668 50.5 19.668C53.8251 19.668 57.053 20.2418 60.1234 21.3761L58.0334 23.4662C57.6145 23.8851 57.4892 24.5152 57.716 25.0626C57.9427 25.6098 58.4768 25.9668 59.0693 25.9668H72.0543C72.8633 25.9668 73.5191 25.3109 73.5191 24.502V11.517C73.5191 10.9245 73.1622 10.3904 72.6149 10.1638C72.0678 9.93703 71.4376 10.0624 71.0185 10.4812L67.4556 14.044C62.3206 11.4401 56.5829 10.0451 50.7914 10.0009C42.7403 9.94567 35.0257 12.4437 28.4746 17.2421C27.822 17.7202 27.6804 18.6367 28.1585 19.2895C28.6365 19.9422 29.553 20.0839 30.2059 19.6056C36.1728 15.2351 43.1856 12.9297 50.504 12.9297C50.5921 12.9297 50.6809 12.93 50.7691 12.9307C56.449 12.9739 62.0709 14.4256 67.0272 17.1287C67.5978 17.4398 68.3049 17.338 68.7644 16.8785L70.5893 15.0536V23.0371H62.6058L63.7451 21.8978C64.0841 21.5588 64.2358 21.0753 64.151 20.6033C64.0662 20.1313 63.7561 19.7307 63.3205 19.5307C59.2845 17.6777 54.971 16.7383 50.5 16.7383C33.5381 16.7383 19.7384 30.5379 19.7383 47.4999C19.7383 55.7398 22.9316 63.4711 28.7302 69.2697C34.529 75.0684 42.2603 78.2619 50.5002 78.2617C66.9714 78.2616 80.4605 65.2497 81.2273 48.9649H85.0397C84.2691 67.3498 69.0711 82.0703 50.5 82.0703C31.438 82.0703 15.9298 66.5623 15.9297 47.5003C15.9297 40.581 18.0125 33.8806 21.9534 28.1239C22.4104 27.4564 22.2396 26.5448 21.5721 26.0878C20.9044 25.6306 19.9929 25.8014 19.5358 26.4693C15.26 32.7152 13 39.9877 13 47.5003C13 57.5169 16.9007 66.934 23.9835 74.0168C31.0664 81.0996 40.4834 85 50.5 85C60.5166 85 69.9336 81.0993 77.0166 74.0166C84.0996 66.934 88 57.5166 88 47.5C88 46.691 87.3442 46.0352 86.5352 46.0352Z" fill="#0D1118"/>
<path d="M25.9491 21.2081C25.377 20.6362 24.4495 20.6362 23.8773 21.2081L23.8472 21.2388C23.2855 21.8213 23.298 22.7531 23.8804 23.3147C24.1659 23.5899 24.533 23.7273 24.8994 23.7273C25.2805 23.7273 25.6609 23.5785 25.9473 23.2816L24.9133 22.244L25.9491 23.2798C26.5211 22.7078 26.5211 21.7802 25.9491 21.2081Z" fill="#0D1118"/>
<path d="M50.5 64.0527C41.3727 64.0527 33.9473 56.6273 33.9473 47.5C33.9473 46.6911 33.2914 46.0352 32.4824 46.0352C31.6734 46.0352 31.0176 46.6911 31.0176 47.5C31.0176 58.2427 39.7574 66.9824 50.5 66.9824C51.309 66.9824 51.9648 66.3265 51.9648 65.5176C51.9648 64.7087 51.309 64.0527 50.5 64.0527Z" fill="#0D1118"/>
<path d="M70.1447 34.8872L73.2249 31.5621V28.9191H62.4761V32.1803H68.3391L65.6837 35.0578V37.7221H67.4469C69.0613 37.7221 69.7198 38.2763 69.7198 39.1715C69.7198 40.1733 68.7852 40.7275 67.3619 40.7275C65.9599 40.7275 64.4304 40.3012 63.2408 39.4913L61.7113 42.6672C63.2408 43.6264 65.4288 44.1379 67.4893 44.1379C71.9716 44.1379 73.9684 41.708 73.9684 39.1715C73.9684 37.0401 72.6513 35.4201 70.1447 34.8872Z" fill="#0D1118"/>
<path d="M81.4573 44.1379C85.2385 44.1379 88 41.303 88 36.3793C88 31.4555 85.2385 28.6207 81.4573 28.6207C77.6548 28.6207 74.8933 31.4555 74.8933 36.3793C74.8933 41.303 77.6548 44.1379 81.4573 44.1379ZM81.4573 40.6849C80.0977 40.6849 79.1206 39.5126 79.1206 36.3793C79.1206 33.246 80.0977 32.0737 81.4573 32.0737C82.7955 32.0737 83.7727 33.246 83.7727 36.3793C83.7727 39.5126 82.7955 40.6849 81.4573 40.6849Z" fill="#0D1118"/>
</symbol>

<symbol id="time2" width="95" height="95" viewBox="0 0 95 95" fill="none" xmlns="http://www.w3.org/2000/svg">
<path d="M69.7656 1.82472e-05C64.2495 -0.002196 58.9291 2.04437 54.8364 5.74276C50.7437 9.44114 48.1705 14.5277 47.6158 20.016C47.0611 25.5042 48.5644 31.0028 51.8343 35.4453C55.1042 39.8879 59.9075 42.9576 65.3125 44.0592V54.9219C65.3122 55.238 65.4128 55.546 65.5997 55.801C65.7866 56.056 66.05 56.2446 66.3516 56.3395C66.4959 56.3836 66.646 56.4061 66.7969 56.4063C67.0367 56.4064 67.273 56.3483 67.4855 56.2372C67.6979 56.126 67.8803 55.965 68.017 55.768L76.5522 43.4625C80.7778 42.1103 84.5006 39.5219 87.2397 36.0317C87.4779 35.7224 87.5846 35.3316 87.5368 34.9442C87.4889 34.5567 87.2903 34.2036 86.984 33.9616C86.6776 33.7195 86.2883 33.6078 85.9002 33.6508C85.5122 33.6938 85.1567 33.8879 84.9107 34.1911C82.4391 37.3417 79.0451 39.6417 75.2029 40.7699C74.8774 40.8656 74.5945 41.0699 74.4013 41.3488L68.2813 50.1719V42.8109C68.2813 42.4537 68.1525 42.1084 67.9186 41.8385C67.6847 41.5686 67.3612 41.3921 67.0077 41.3413C63.3492 40.8107 59.9203 39.2398 57.1293 36.8157C54.3382 34.3917 52.3027 31.2165 51.265 27.6684C50.2273 24.1203 50.2312 20.3486 51.2762 16.8027C52.3212 13.2567 54.3633 10.0857 57.1593 7.6674C59.9553 5.24907 63.3874 3.68525 67.047 3.16215C70.7065 2.63906 74.4393 3.17873 77.8009 4.71691C81.1624 6.25508 84.0111 8.72695 86.0077 11.8382C88.0043 14.9494 89.0646 18.5689 89.0625 22.2656C89.0617 24.7175 88.59 27.1464 87.6731 29.4203C87.5267 29.7859 87.5314 30.1946 87.6864 30.5566C87.8413 30.9187 88.1337 31.2043 88.4992 31.3508C88.8647 31.4972 89.2735 31.4925 89.6355 31.3375C89.9975 31.1826 90.2832 30.8902 90.4296 30.5247C91.7858 27.1478 92.2925 23.4897 91.9053 19.8713C91.5181 16.2529 90.2488 12.7849 88.2088 9.77141C86.1688 6.75794 83.4205 4.29116 80.2048 2.58749C76.9892 0.883833 73.4047 -0.00464308 69.7656 1.82472e-05Z" fill="#0D1118"/>
<path d="M78.6719 80.1563H75.7031V75.7031C75.7031 75.3095 75.5467 74.9319 75.2684 74.6535C74.99 74.3752 74.6124 74.2188 74.2188 74.2188V55.2692C74.2188 54.8756 74.0624 54.498 73.784 54.2196C73.5056 53.9412 73.1281 53.7849 72.7344 53.7849C72.3407 53.7849 71.9631 53.9412 71.6848 54.2196C71.4064 54.498 71.25 54.8756 71.25 55.2692V74.2188H68.2812V60.8594C68.2812 60.4657 68.1249 60.0882 67.8465 59.8098C67.5681 59.5314 67.1906 59.375 66.7969 59.375C66.4032 59.375 66.0256 59.5314 65.7473 59.8098C65.4689 60.0882 65.3125 60.4657 65.3125 60.8594V74.2188H62.3438V47.5C62.3438 47.1063 62.1874 46.7288 61.909 46.4504C61.6306 46.172 61.2531 46.0156 60.8594 46.0156C60.4657 46.0156 60.0881 46.172 59.8098 46.4504C59.5314 46.7288 59.375 47.1063 59.375 47.5V74.2188H48.9844V43.0469H51.7676C52.1613 43.0469 52.5388 42.8905 52.8172 42.6121C53.0956 42.3338 53.252 41.9562 53.252 41.5625C53.252 41.1688 53.0956 40.7913 52.8172 40.5129C52.5388 40.2345 52.1613 40.0781 51.7676 40.0781H5.9375V33.5261L41.5625 13.5761L44.4303 15.1822C44.7738 15.3747 45.1797 15.4229 45.5587 15.3161C45.9377 15.2094 46.2588 14.9564 46.4513 14.6129C46.6438 14.2695 46.692 13.8636 46.5852 13.4846C46.4785 13.1056 46.2255 12.7845 45.882 12.592L42.2884 10.5792C42.0663 10.4558 41.8165 10.3911 41.5625 10.3911C41.3085 10.3911 41.0587 10.4558 40.8366 10.5792L3.72727 31.3604C3.49705 31.4895 3.3054 31.6776 3.17207 31.9054C3.03875 32.1331 2.96856 32.3923 2.96875 32.6563V41.5625C2.96875 41.9562 3.12514 42.3338 3.40351 42.6121C3.68189 42.8905 4.05944 43.0469 4.45313 43.0469H8.90625V74.2188C8.51257 74.2188 8.13501 74.3752 7.85664 74.6535C7.57826 74.9319 7.42188 75.3095 7.42188 75.7031V80.1563H4.45313C4.05944 80.1563 3.68189 80.3127 3.40351 80.591C3.12514 80.8694 2.96875 81.247 2.96875 81.6406C2.96875 82.0343 3.12514 82.4119 3.40351 82.6903C3.68189 82.9686 4.05944 83.125 4.45313 83.125H77.1875V86.0938H4.45313C4.05944 86.0938 3.68189 86.2502 3.40351 86.5285C3.12514 86.8069 2.96875 87.1845 2.96875 87.5781C2.96875 87.9718 3.12514 88.3494 3.40351 88.6278C3.68189 88.9061 4.05944 89.0625 4.45313 89.0625H78.6719C79.0656 89.0625 79.4431 88.9061 79.7215 88.6278C79.9999 88.3494 80.1562 87.9718 80.1562 87.5781V81.6406C80.1562 81.247 79.9999 80.8694 79.7215 80.591C79.4431 80.3127 79.0656 80.1563 78.6719 80.1563ZM46.0156 43.0469V74.2188H43.0469V47.5C43.0469 47.1063 42.8905 46.7288 42.6121 46.4504C42.3337 46.172 41.9562 46.0156 41.5625 46.0156C41.1688 46.0156 40.7913 46.172 40.5129 46.4504C40.2345 46.7288 40.0781 47.1063 40.0781 47.5V74.2188H37.1094V43.0469H46.0156ZM23.75 74.2188V43.0469H34.1406V74.2188H23.75ZM11.875 43.0469H14.8438V69.7656C14.8438 70.1593 15.0001 70.5369 15.2785 70.8153C15.5569 71.0936 15.9344 71.25 16.3281 71.25C16.7218 71.25 17.0994 71.0936 17.3777 70.8153C17.6561 70.5369 17.8125 70.1593 17.8125 69.7656V43.0469H20.7812V74.2188H11.875V43.0469ZM10.3906 80.1563V77.1875H72.7344V80.1563H10.3906Z" fill="#0D1118"/>
<path d="M45.0226 33.0066C44.0183 33.7412 42.8068 34.1383 41.5625 34.1407C40.7285 34.1434 39.9033 33.9705 39.1407 33.6331C38.378 33.2957 37.695 32.8014 37.1361 32.1824C36.5771 31.5635 36.1549 30.8337 35.8968 30.0407C35.6387 29.2477 35.5506 28.4092 35.6381 27.5798C35.7257 26.7504 35.987 25.9488 36.405 25.2272C36.823 24.5055 37.3883 23.88 38.0642 23.3914C38.74 22.9028 39.5112 22.5621 40.3275 22.3914C41.1438 22.2207 41.9869 22.2239 42.8019 22.4007C42.9926 22.4416 43.1894 22.4445 43.3812 22.4092C43.5729 22.374 43.7559 22.3014 43.9195 22.1954C44.0832 22.0895 44.2244 21.9524 44.3351 21.7919C44.4458 21.6314 44.5238 21.4506 44.5646 21.26C44.6055 21.0694 44.6084 20.8725 44.5731 20.6808C44.5379 20.489 44.4653 20.3061 44.3593 20.1424C44.2534 19.9787 44.1163 19.8375 43.9558 19.7268C43.7953 19.6161 43.6145 19.5381 43.4239 19.4973C41.9722 19.1818 40.4647 19.2345 39.0385 19.6505C37.6124 20.0665 36.3129 20.8327 35.2586 21.8792C34.2042 22.9257 33.4283 24.2193 33.0016 25.6423C32.5749 27.0653 32.5109 28.5724 32.8155 30.0264C33.1201 31.4804 33.7836 32.8352 34.7455 33.9673C35.7074 35.0994 36.9372 35.9729 38.323 36.5082C39.7087 37.0436 41.2064 37.2238 42.6796 37.0325C44.1528 36.8412 45.5548 36.2843 46.7578 35.4128C46.9222 35.3013 47.0625 35.158 47.1705 34.9913C47.2785 34.8247 47.352 34.638 47.3866 34.4424C47.4211 34.2469 47.4161 34.0464 47.3718 33.8528C47.3274 33.6592 47.2447 33.4764 47.1284 33.3154C47.0122 33.1544 46.8648 33.0183 46.6951 32.9152C46.5253 32.8122 46.3366 32.7442 46.1401 32.7154C45.9436 32.6866 45.7433 32.6976 45.5511 32.7476C45.3589 32.7976 45.1786 32.8857 45.0211 33.0066H45.0226Z" fill="#0D1118"/>
<path d="M30.4134 25.4288C30.3195 25.258 30.1929 25.1073 30.0408 24.9853C29.8887 24.8634 29.7141 24.7726 29.5269 24.7182C29.3397 24.6637 29.1436 24.6467 28.9499 24.668C28.7561 24.6893 28.5684 24.7486 28.3976 24.8425L11.1595 34.3247C10.8711 34.4835 10.6436 34.7338 10.5129 35.036C10.3823 35.3383 10.3558 35.6754 10.4378 35.9944C10.5197 36.3133 10.7054 36.596 10.9656 36.7978C11.2258 36.9997 11.5457 37.1093 11.875 37.1094H28.2031C28.5968 37.1094 28.9744 36.953 29.2527 36.6746C29.5311 36.3962 29.6875 36.0187 29.6875 35.625C29.6875 35.2313 29.5311 34.8538 29.2527 34.5754C28.9744 34.297 28.5968 34.1406 28.2031 34.1406H17.6537L29.8255 27.4446C29.9965 27.3509 30.1474 27.2244 30.2695 27.0723C30.3916 26.9203 30.4825 26.7457 30.5371 26.5585C30.5917 26.3713 30.6088 26.1752 30.5876 25.9814C30.5664 25.7875 30.5072 25.5998 30.4134 25.4288Z" fill="#0D1118"/>
<path d="M83.8289 31.2088C83.7055 30.6159 83.1246 30.2353 82.5318 30.3587C81.9387 30.4822 81.5581 31.0629 81.6816 31.6559C81.7527 31.9974 81.6681 32.3476 81.4493 32.6165C81.3226 32.7722 81.0402 33.0336 80.572 33.0336H75.6201C75.0144 33.0336 74.5234 33.5246 74.5234 34.1303C74.5234 34.736 75.0144 35.227 75.6201 35.227H80.572C81.5771 35.227 82.5171 34.7799 83.151 34.0004C83.7881 33.217 84.0352 32.1995 83.8289 31.2088Z" fill="#0D1118"/>
<path d="M70.9759 22.1088C74.5789 22.4406 77.8564 24.3718 79.8976 27.4161C80.2349 27.9192 80.9162 28.0536 81.4192 27.7163C81.9223 27.3789 82.0567 26.6977 81.7194 26.1946C79.9198 23.5107 77.3066 21.5594 74.327 20.5789C76.1429 19.2174 77.3199 17.0481 77.3199 14.6091C77.3199 10.497 73.9744 7.15158 69.8624 7.15158C65.7503 7.15158 62.4049 10.497 62.4049 14.6091C62.4049 17.0497 63.5834 19.2203 65.4012 20.5815C63.7358 21.1298 62.173 21.9824 60.8054 23.1073C58.2977 25.17 56.5541 28.0472 55.8959 31.2088C55.6896 32.1995 55.9367 33.2169 56.5738 34.0003C57.2077 34.7799 58.1477 35.2269 59.1528 35.2269H63.9402C64.546 35.2269 65.0369 34.7359 65.0369 34.1302C65.0369 33.5245 64.546 33.0335 63.9402 33.0335H59.1527C58.6845 33.0335 58.4021 32.7723 58.2754 32.6165C58.0567 32.3475 57.972 31.9974 58.0431 31.6558C59.117 26.4976 63.4706 22.6519 68.6365 22.1209L66.5428 31.6462C66.4626 32.0115 66.574 32.3926 66.8385 32.6571L69.032 34.8508C69.2376 35.0566 69.5166 35.1721 69.8076 35.1721C70.0985 35.1721 70.3774 35.0565 70.5831 34.8508L72.7764 32.6571C73.0408 32.3925 73.1523 32.0115 73.072 31.6462L70.9759 22.1088ZM64.5983 14.6091C64.5983 11.7064 66.9597 9.34497 69.8624 9.34497C72.7651 9.34497 75.1265 11.7064 75.1265 14.6091C75.1265 17.4241 72.9054 19.7301 70.1237 19.8668C70.0367 19.8652 69.9496 19.8641 69.8624 19.8641C69.7768 19.8641 69.6913 19.8654 69.6058 19.8669C66.8219 19.7326 64.5983 17.4257 64.5983 14.6091ZM69.8075 32.5243L68.8141 31.5307L69.8075 27.0109L70.8008 31.5308L69.8075 32.5243Z" fill="#0D1118"/>
</symbol>

<symbol id="time3" width="95" height="95" viewBox="0 0 95 95" fill="none" xmlns="http://www.w3.org/2000/svg">
<path d="M31.6678 14.3055L31.1249 14.1698C30.9357 14.1225 30.7382 14.119 30.5474 14.1595C30.3566 14.1999 30.1776 14.2833 30.0239 14.4034C29.8701 14.5234 29.7458 14.6769 29.6603 14.8522C29.5748 15.0275 29.5303 15.2199 29.5303 15.415V27.8412C29.5303 33.5723 31.1719 39.1836 34.2607 44.0112C37.3495 48.8387 41.7564 52.6806 46.9601 55.0823C47.1287 55.1601 47.3122 55.2004 47.4979 55.2004C47.6836 55.2004 47.8671 55.1601 48.0358 55.0823C53.2394 52.6806 57.6463 48.8387 60.7352 44.0112C63.824 39.1836 65.4655 33.5723 65.4656 27.8412V15.415C65.4656 15.2199 65.4211 15.0275 65.3356 14.8522C65.2501 14.6769 65.1257 14.5234 64.972 14.4034C64.8183 14.2833 64.6392 14.1999 64.4484 14.1594C64.2577 14.119 64.0602 14.1225 63.8709 14.1698L63.328 14.3056C60.6481 14.9657 57.8368 14.8617 55.2131 14.0051C52.5893 13.1486 50.2581 11.574 48.4838 9.4598C48.3634 9.31525 48.2127 9.19895 48.0423 9.11914C47.8719 9.03933 47.6861 8.99796 47.4979 8.99796C47.3098 8.99796 47.124 9.03933 46.9536 9.11914C46.7832 9.19895 46.6325 9.31525 46.512 9.4598C44.7378 11.574 42.4066 13.1487 39.7828 14.0052C37.159 14.8617 34.3477 14.9657 31.6678 14.3055ZM47.4979 12.1891C49.4292 14.1433 51.7998 15.6074 54.412 16.459C57.1492 17.3538 60.0671 17.5482 62.8988 17.0242V27.8412C62.889 32.9787 61.4413 38.0109 58.7195 42.3683C55.9977 46.7256 52.1105 50.234 47.4979 52.4964C42.8854 50.234 38.9982 46.7256 36.2764 42.3683C33.5546 38.0109 32.1069 32.9787 32.0971 27.8412V17.0242C34.9288 17.5479 37.8466 17.3536 40.5838 16.459C43.196 15.6074 45.5667 14.1433 47.4979 12.1891Z" fill="#0D1118"/>
<path d="M37.2306 20.5486H34.6639V23.1152H37.2306V20.5486Z" fill="#0D1118"/>
<path d="M37.2307 25.6822H34.6639V29.7263C34.6661 33.7364 35.8302 37.66 38.0154 41.0224C40.2005 44.3848 43.3131 47.0421 46.9767 48.6728C47.1408 48.7457 47.3184 48.7834 47.4979 48.7834C47.6775 48.7834 47.8551 48.7457 48.0191 48.6728C51.6827 47.0421 54.7953 44.3848 56.9805 41.0224C59.1656 37.66 60.3297 33.7364 60.332 29.7263V20.5485C60.332 20.3535 60.2875 20.161 60.202 19.9857C60.1165 19.8105 59.9921 19.657 59.8384 19.537C59.6846 19.4169 59.5056 19.3335 59.3148 19.2931C59.124 19.2526 58.9265 19.2562 58.7373 19.3035C57.2736 19.6737 55.7511 19.7499 54.2578 19.5277C52.7645 19.3054 51.3301 18.7892 50.0377 18.0088L48.1582 16.8812L46.8377 19.0823L48.7171 20.21C51.431 21.8491 54.6223 22.5148 57.7651 22.0976V29.7263C57.7631 33.1422 56.7989 36.4885 54.9831 39.3818C53.1672 42.2751 50.5731 44.5984 47.4979 46.0856C44.4227 44.5984 41.8286 42.2751 40.0128 39.3818C38.1969 36.4885 37.2328 33.1422 37.2307 29.7263V25.6822Z" fill="#0D1118"/>
<path d="M47.4977 43.6494C48.2592 43.6494 49.0035 43.4236 49.6367 43.0005C50.2698 42.5775 50.7633 41.9762 51.0547 41.2727C51.3461 40.5692 51.4223 39.7951 51.2737 39.0483C51.1252 38.3014 50.7585 37.6154 50.2201 37.077C49.6817 36.5386 48.9956 36.1719 48.2488 36.0233C47.502 35.8748 46.7279 35.951 46.0244 36.2424C45.3209 36.5338 44.7196 37.0273 44.2966 37.6604C43.8735 38.2936 43.6477 39.0379 43.6477 39.7994C43.6489 40.8201 44.0549 41.7987 44.7766 42.5205C45.4984 43.2422 46.477 43.6482 47.4977 43.6494ZM47.4977 38.516C47.7515 38.516 47.9997 38.5913 48.2107 38.7323C48.4217 38.8733 48.5862 39.0738 48.6834 39.3083C48.7805 39.5428 48.8059 39.8008 48.7564 40.0497C48.7069 40.2987 48.5847 40.5274 48.4052 40.7068C48.2257 40.8863 47.997 41.0085 47.7481 41.0581C47.4991 41.1076 47.2411 41.0822 47.0066 40.985C46.7721 40.8879 46.5717 40.7234 46.4307 40.5124C46.2897 40.3013 46.2144 40.0532 46.2144 39.7994C46.2148 39.4591 46.3501 39.1329 46.5907 38.8924C46.8313 38.6518 47.1575 38.5164 47.4977 38.516Z" fill="#0D1118"/>
<path d="M44.944 33.5636C44.9877 33.8694 45.1402 34.1492 45.3736 34.3516C45.6069 34.5539 45.9055 34.6654 46.2144 34.6654H48.7811C49.09 34.6654 49.3885 34.5539 49.6219 34.3516C49.8552 34.1492 50.0078 33.8694 50.0515 33.5636L51.3348 24.5803C51.3608 24.3982 51.3474 24.2128 51.2955 24.0364C51.2435 23.86 51.1543 23.6968 51.0339 23.5579C50.9134 23.419 50.7645 23.3076 50.5972 23.2313C50.43 23.1549 50.2483 23.1154 50.0644 23.1154H44.9311C44.7472 23.1154 44.5655 23.1549 44.3982 23.2313C44.2309 23.3076 44.082 23.419 43.9616 23.5579C43.8411 23.6968 43.7519 23.86 43.7 24.0364C43.6481 24.2128 43.6346 24.3982 43.6606 24.5803L44.944 33.5636ZM48.5847 25.682L47.668 32.0987H47.3274L46.4108 25.682H48.5847Z" fill="#0D1118"/>
<path d="M84.7166 11.5647C84.7166 11.2243 84.5814 10.8978 84.3407 10.6572C84.1 10.4165 83.7736 10.2813 83.4332 10.2812H73.166C72.8256 10.2813 72.4992 10.4165 72.2585 10.6572C72.0178 10.8978 71.8826 11.2243 71.8826 11.5647V20.5485H68.0324V23.1153H71.8826V83.4352H64.1822V46.2165H61.6154V83.4352H53.9149V55.2003H51.3481V83.4352H43.6477V56.4837H41.0809V83.4352H33.3805V55.2003H38.5141V52.6335H32.0971C31.7567 52.6335 31.4303 52.7687 31.1896 53.0094C30.9489 53.2501 30.8137 53.5766 30.8137 53.9169V64.1842H21.8299C21.4895 64.1842 21.1631 64.3194 20.9224 64.5601C20.6817 64.8007 20.5465 65.1272 20.5465 65.4676V71.8846H11.5627C11.2223 71.8846 10.8958 72.0198 10.6552 72.2605C10.4145 72.5012 10.2793 72.8276 10.2793 73.168V83.4352H8.99586V86.002H86V83.4352H84.7166V11.5647ZM12.8461 74.4514H20.5465V83.4352H12.8461V74.4514ZM23.1133 66.751H30.8137V83.4352H23.1133V66.751ZM74.4494 83.4352V12.8481H82.1498V83.4352H74.4494Z" fill="#0D1118"/>
<path d="M24.701 43.9096L9.34957 59.314L11.1587 61.1294L26.5102 45.725L24.701 43.9096Z" fill="#0D1118"/>
<path d="M23.0412 53.8042C20.9254 53.8042 19.2036 55.532 19.2036 57.6551C19.2036 59.7782 20.9254 61.5059 23.0412 61.5059C25.157 61.5059 26.8788 59.7782 26.8788 57.6551C26.8788 55.532 25.157 53.8042 23.0412 53.8042ZM23.0412 58.9387C22.3364 58.9387 21.762 58.3636 21.762 57.6551C21.762 56.9465 22.3364 56.3714 23.0412 56.3714C23.7461 56.3714 24.3204 56.9465 24.3204 57.6551C24.3204 58.3636 23.7461 58.9387 23.0412 58.9387Z" fill="#0D1118"/>
<path d="M12.807 43.5347C10.6912 43.5347 8.96939 45.2625 8.96939 47.3856C8.96939 49.5087 10.6912 51.2365 12.807 51.2365C14.9228 51.2365 16.6446 49.5087 16.6446 47.3856C16.6446 45.2625 14.9228 43.5347 12.807 43.5347ZM12.807 48.6692C12.1022 48.6692 11.5278 48.0941 11.5278 47.3856C11.5278 46.677 12.1022 46.102 12.807 46.102C13.5119 46.102 14.0862 46.677 14.0862 47.3856C14.0862 48.0941 13.5119 48.6692 12.807 48.6692Z" fill="#0D1118"/>
</symbol>

<symbol id="time4" width="95" height="95" viewBox="0 0 95 95" fill="none" xmlns="http://www.w3.org/2000/svg">
<path d="M62.8539 11.3366C62.8539 10.6435 62.2923 10.0819 61.5992 10.0819H17.6624C16.9693 10.0819 16.4077 10.6435 16.4077 11.3366V16.7441C16.4077 17.4372 16.9693 17.9988 17.6624 17.9988H61.5994C62.2924 17.9988 62.854 17.4372 62.854 16.7441V11.3366H62.8539ZM60.3446 15.4895H18.9171V12.5912H60.3447V15.4895H60.3446Z" fill="#0D1118"/>
<path d="M61.5992 20.8972H28.8156C28.1226 20.8972 27.561 21.4588 27.561 22.1519C27.561 22.8449 28.1226 23.4065 28.8156 23.4065H61.5994C62.2924 23.4065 62.854 22.8449 62.854 22.1519C62.854 21.4588 62.2923 20.8972 61.5992 20.8972Z" fill="#0D1118"/>
<path d="M61.5992 26.3048H28.8156C28.1226 26.3048 27.561 26.8664 27.561 27.5595C27.561 28.2525 28.1226 28.8141 28.8156 28.8141H61.5994C62.2924 28.8141 62.854 28.2525 62.854 27.5595C62.854 26.8664 62.2923 26.3048 61.5992 26.3048Z" fill="#0D1118"/>
<path d="M62.8539 38.3746C62.8539 37.6815 62.2923 37.12 61.5992 37.12H28.8156C28.1226 37.12 27.561 37.6815 27.561 38.3746C27.561 39.0677 28.1226 39.6293 28.8156 39.6293H61.5994C62.2923 39.6293 62.8539 39.0677 62.8539 38.3746Z" fill="#0D1118"/>
<path d="M61.5992 31.7124H28.8156C28.1226 31.7124 27.561 32.274 27.561 32.9671C27.561 33.6601 28.1226 34.2217 28.8156 34.2217H61.5994C62.2924 34.2217 62.854 33.6601 62.854 32.9671C62.854 32.274 62.2923 31.7124 61.5992 31.7124Z" fill="#0D1118"/>
<path d="M44.0964 49.1899C44.0964 48.4969 43.5348 47.9353 42.8417 47.9353H28.8156C28.1226 47.9353 27.561 48.4969 27.561 49.1899C27.561 49.883 28.1226 50.4446 28.8156 50.4446H42.8417C43.5346 50.4446 44.0964 49.8828 44.0964 49.1899Z" fill="#0D1118"/>
<path d="M47.645 43.7822C47.645 43.0891 47.0835 42.5275 46.3904 42.5275H28.8156C28.1226 42.5275 27.561 43.0891 27.561 43.7822C27.561 44.4753 28.1226 45.0368 28.8156 45.0368H46.3905C47.0835 45.0368 47.645 44.4753 47.645 43.7822Z" fill="#0D1118"/>
<path d="M28.8156 61.2597H37.6029C38.296 61.2597 38.8576 60.6982 38.8576 60.0051C38.8576 59.312 38.296 58.7504 37.6029 58.7504H28.8156C28.1226 58.7504 27.561 59.312 27.561 60.0051C27.561 60.6982 28.1226 61.2597 28.8156 61.2597Z" fill="#0D1118"/>
<path d="M40.3786 54.5975C40.3786 53.9044 39.817 53.3428 39.1239 53.3428H28.8156C28.1226 53.3428 27.561 53.9044 27.561 54.5975C27.561 55.2906 28.1226 55.8522 28.8156 55.8522H39.1239C39.8168 55.8522 40.3786 55.2904 40.3786 54.5975Z" fill="#0D1118"/>
<path d="M28.8156 72.0749H37.941C38.6341 72.0749 39.1957 71.5133 39.1957 70.8202C39.1957 70.1272 38.6341 69.5656 37.941 69.5656H28.8156C28.1226 69.5656 27.561 70.1272 27.561 70.8202C27.561 71.5133 28.1226 72.0749 28.8156 72.0749Z" fill="#0D1118"/>
<path d="M28.8156 66.6673H37.096C37.7891 66.6673 38.3507 66.1058 38.3507 65.4127C38.3507 64.7196 37.7891 64.158 37.096 64.158H28.8156C28.1226 64.158 27.561 64.7196 27.561 65.4127C27.561 66.1058 28.1226 66.6673 28.8156 66.6673Z" fill="#0D1118"/>
<path d="M16.4077 27.5595C16.4077 28.2525 16.9693 28.8141 17.6624 28.8141H23.07C23.7631 28.8141 24.3246 28.2525 24.3246 27.5595V22.1519C24.3246 21.4588 23.7631 20.8972 23.07 20.8972H17.6624C16.9693 20.8972 16.4077 21.4588 16.4077 22.1519V27.5595ZM18.9171 23.4065H21.8153V26.3048H18.9171V23.4065Z" fill="#0D1118"/>
<path d="M16.4077 38.3746C16.4077 39.0677 16.9693 39.6293 17.6624 39.6293H23.07C23.7631 39.6293 24.3246 39.0677 24.3246 38.3746V32.9671C24.3246 32.274 23.7631 31.7124 23.07 31.7124H17.6624C16.9693 31.7124 16.4077 32.274 16.4077 32.9671V38.3746ZM18.9171 34.2217H21.8153V37.12H18.9171V34.2217Z" fill="#0D1118"/>
<path d="M16.4077 49.1899C16.4077 49.883 16.9693 50.4446 17.6624 50.4446H23.07C23.7631 50.4446 24.3246 49.883 24.3246 49.1899V43.7823C24.3246 43.0893 23.7631 42.5277 23.07 42.5277H17.6624C16.9693 42.5277 16.4077 43.0893 16.4077 43.7823V49.1899ZM18.9171 45.0368H21.8153V47.9351H18.9171V45.0368Z" fill="#0D1118"/>
<path d="M16.4077 60.0051C16.4077 60.6981 16.9693 61.2597 17.6624 61.2597H23.07C23.7631 61.2597 24.3246 60.6981 24.3246 60.0051V54.5975C24.3246 53.9044 23.7631 53.3428 23.07 53.3428H17.6624C16.9693 53.3428 16.4077 53.9044 16.4077 54.5975V60.0051ZM18.9171 55.8522H21.8153V58.7504H18.9171V55.8522Z" fill="#0D1118"/>
<path d="M16.4077 70.8203C16.4077 71.5133 16.9693 72.0749 17.6624 72.0749H23.07C23.7631 72.0749 24.3246 71.5133 24.3246 70.8203V65.4127C24.3246 64.7196 23.7631 64.158 23.07 64.158H17.6624C16.9693 64.158 16.4077 64.7196 16.4077 65.4127V70.8203ZM18.9171 66.6673H21.8153V69.5656H18.9171V66.6673Z" fill="#0D1118"/>
<path d="M81.796 74.5456C83.4288 71.4749 84.2953 68.0319 84.2953 64.4556C84.2953 59.068 82.3297 53.9822 78.7382 50.0173V41.9109C78.7382 41.2178 78.1766 40.6563 77.4835 40.6563C76.7905 40.6563 76.2289 41.2178 76.2289 41.9109V47.6517C75.4143 46.9965 74.5592 46.4051 73.6692 45.8805V17.3229H76.2289V36.0558C76.2289 36.7489 76.7905 37.3105 77.4835 37.3105C78.1766 37.3105 78.7382 36.7489 78.7382 36.0558V16.0683C78.7382 15.3752 78.1766 14.8136 77.4835 14.8136H73.6692V10.9986C73.6692 10.3056 73.1076 9.74397 72.4145 9.74397H68.2609V5.92898C68.2609 5.2359 67.6994 4.67432 67.0063 4.67432H12.2547C11.5616 4.67432 11 5.2359 11 5.92898V14.1261C11 14.8192 11.5616 15.3807 12.2547 15.3807C12.9477 15.3807 13.5093 14.8192 13.5093 14.1261V7.18363H65.7516V43.1286C64.7691 42.9929 63.7711 42.9225 62.762 42.9225C57.0103 42.9225 51.6029 45.1623 47.5357 49.2293C43.4686 53.2964 41.2287 58.7039 41.2287 64.4556C41.2287 69.1629 42.7298 73.6391 45.5041 77.3393H13.5093V19.9812C13.5093 19.2881 12.9477 18.7265 12.2547 18.7265C11.5616 18.7265 11 19.2881 11 19.9812V78.5938C11 79.2869 11.5616 79.8484 12.2547 79.8484H16.4077V84.0014C16.4077 84.6944 16.9693 85.256 17.6624 85.256H21.4772V89.071C21.4772 89.7641 22.0388 90.3257 22.7319 90.3257H77.4835C78.1766 90.3257 78.7382 89.7641 78.7382 89.071L78.6042 83.2617L81.796 74.5456ZM78.6042 83.2617V79.141C79.5184 78.2267 81.0712 75.5839 81.796 74.5456L78.6042 83.2617ZM68.2609 12.2533H71.1599V44.6165C70.2201 44.2185 69.2516 43.8886 68.2609 43.6288V12.2533ZM49.3102 51.0037C53.0189 47.2949 57.8904 45.4405 62.762 45.4405C67.6336 45.4405 72.5052 47.2949 76.2138 51.0037C79.807 54.5969 81.786 59.3741 81.786 64.4555C81.786 69.537 79.8072 74.3144 76.2138 77.9074C72.6206 81.5006 67.8436 83.4794 62.762 83.4794C57.6805 83.4794 52.9033 81.5007 49.3102 77.9074C45.7171 74.3142 43.7381 69.537 43.7381 64.4555C43.7381 59.3741 45.7169 54.5969 49.3102 51.0037ZM18.9171 79.8484H47.7065C48.85 80.9674 50.0878 81.9342 51.3952 82.7467H18.9171V79.8484ZM23.9866 87.8164V85.256H57.2057C57.2077 85.256 57.2089 85.2557 57.2109 85.2557C59.0273 85.7371 60.8946 85.9787 62.762 85.9787C66.2328 85.9787 71.6874 84.7692 76.2289 81.0541V86.8663V87.8164H23.9866Z" fill="#0D1118"/>
<path d="M62.762 80.5812C67.0694 80.5812 71.1189 78.9036 74.165 75.8576C80.2267 69.7958 80.4904 60.0575 74.7648 53.6875C74.3016 53.1724 73.5083 53.1296 72.9929 53.5932C72.4776 54.0565 72.4353 54.8497 72.8985 55.3651C77.7323 60.7429 77.5091 68.9649 72.3906 74.0834C69.8186 76.6556 66.3992 78.0722 62.762 78.0722C59.1252 78.0722 55.7057 76.6556 53.1336 74.0834C50.5622 71.5122 49.1461 68.0928 49.1461 64.4558C49.1461 60.8186 50.5622 57.3993 53.1336 54.8281C57.2034 50.7581 63.4267 49.6865 68.6193 52.161C69.2443 52.4586 69.9934 52.1938 70.2917 51.5681C70.5898 50.9426 70.3243 50.1939 69.6988 49.8958C63.5493 46.9654 56.1791 48.2339 51.359 53.0536C48.3139 56.099 46.6367 60.1483 46.6367 64.4558C46.6367 68.7631 48.3137 72.8125 51.359 75.8578C54.4053 78.9036 58.4549 80.5812 62.762 80.5812Z" fill="#0D1118"/>
<path d="M72.9765 76.492C73.2868 76.492 73.5971 76.3732 73.8347 76.138C74.3074 75.6653 74.3074 74.8968 73.8347 74.4241L53.2995 53.8884C52.8268 53.4157 52.0583 53.4157 51.5856 53.8884C51.1129 54.3611 51.1129 55.1296 51.5856 55.6024L72.1208 76.138C72.3559 76.3756 72.6662 76.492 72.9765 76.492Z" fill="#0D1118"/>
</symbol>

<symbol id="play" width="100" height="100" viewBox="0 0 100 100" fill="none" xmlns="http://www.w3.org/2000/svg">
<path d="M50 100C22.3858 100 0 77.6142 0 50C0 22.3858 22.3858 0 50 0C77.6142 0 100 22.3858 100 50C100 77.6142 77.6142 100 50 100Z" fill="#F21C1C"/>
<path d="M0.0364761 51.8123L33.9439 25.0674L58.6475 35.117L70.1086 71.2997L36.2912 98.0967C15.8979 92.2952 0.822334 73.8734 0.0364761 51.8123Z" fill="#F21C1C"/>
<path d="M0.0364761 51.8123L33.9439 25.0674L58.6475 35.117L70.1086 71.2997L36.2912 98.0967C15.8979 92.2952 0.822334 73.8734 0.0364761 51.8123Z" fill="currentColor"/>
<path d="M20.3949 50C20.3949 33.6496 33.6498 20.3949 50.0006 20.3949C66.3503 20.3949 79.6051 33.6498 79.6051 50C79.6051 66.3502 66.3501 79.6051 50.0006 79.6051C33.6496 79.6051 20.3949 66.3504 20.3949 50ZM41.9503 63.0197L63.5145 50L41.9503 36.9803V63.0197Z" fill="white"/>
</symbol>

<symbol id="timer" width="16" height="16" viewBox="0 0 16 16" fill="none" xmlns="http://www.w3.org/2000/svg">
<path d="M4 1.33334V5.33334L6.66667 8.00001L4 10.6667V14.6667H12V10.6667L9.33333 8.00001L12 5.33334V1.33334H4ZM10.6667 11V13.3333H5.33333V11L8 8.33334L10.6667 11ZM8 7.66668L5.33333 5.00001V2.66668H10.6667V5.00001L8 7.66668Z" fill="#828282"/>
</symbol>

<symbol id="arrow" viewBox="0 0 65 65" fill="none" xmlns="http://www.w3.org/2000/svg">
<path d="M55.8594 7.10938H9.14062C8.01709 7.10938 7.10938 8.01709 7.10938 9.14062V55.8594C7.10938 56.9829 8.01709 57.8906 9.14062 57.8906H55.8594C56.9829 57.8906 57.8906 56.9829 57.8906 55.8594V9.14062C57.8906 8.01709 56.9829 7.10938 55.8594 7.10938ZM39.6094 24.1782C39.6094 24.8257 39.2983 25.4414 38.7715 25.8223L29.542 32.5L38.7715 39.1777C39.2983 39.5586 39.6094 40.168 39.6094 40.8218V43.7988C39.6094 44.2114 39.1396 44.4526 38.8032 44.2114L23.188 32.9126C23.1231 32.8658 23.0703 32.8043 23.0338 32.7332C22.9974 32.662 22.9784 32.5831 22.9784 32.5032C22.9784 32.4232 22.9974 32.3444 23.0338 32.2732C23.0703 32.202 23.1231 32.1405 23.188 32.0938L38.8032 20.7949C39.1396 20.5537 39.6094 20.7949 39.6094 21.2075V24.1782Z" fill="currentColor"/>
</symbol>

<symbol id="form-phone" viewBox="0 0 24 24" fill="none" xmlns="http://www.w3.org/2000/svg">
<path d="M15.5 1H7.5C6.83696 1 6.20107 1.26339 5.73223 1.73223C5.26339 2.20107 5 2.83696 5 3.5V20.5C5 21.163 5.26339 21.7989 5.73223 22.2678C6.20107 22.7366 6.83696 23 7.5 23H15.5C16.163 23 16.7989 22.7366 17.2678 22.2678C17.7366 21.7989 18 21.163 18 20.5V3.5C18 2.83696 17.7366 2.20107 17.2678 1.73223C16.7989 1.26339 16.163 1 15.5 1ZM11.5 22C10.67 22 10 21.33 10 20.5C10 19.67 10.67 19 11.5 19C12.33 19 13 19.67 13 20.5C13 21.33 12.33 22 11.5 22ZM16 18H7V4H16V18Z" fill="currentColor"/>
</symbol>

<symbol id="email" viewBox="0 0 12 10" fill="none" xmlns="http://www.w3.org/2000/svg">
<path d="M12 1.67761L6 7.03592L0 1.67761V1.36816H12V1.67761ZM12 9.23462L8.03125 6.25416L12 2.6711V9.23462ZM0 2.6711L3.96875 6.25416L0 9.23462V2.6711ZM6 8.09455L7.64062 6.59618L12 9.8698V9.93494H0V9.8698L4.35938 6.59618L6 8.09455Z" fill="currentColor"/>
</symbol>

<symbol id="facebook" viewBox="0 0 42 42" fill="none" xmlns="http://www.w3.org/2000/svg">
<rect x="4" y="4" width="34" height="34" rx="2" fill="white"/>
<path d="M5.89125 3.99976H36.13C37.1713 3.99976 38 4.82851 38 5.86976V36.1298C38 37.1498 37.1713 37.9998 36.13 37.9998H27.46V24.8248H31.88L32.5387 19.7035H27.46V16.431C27.46 14.9435 27.885 13.9235 30.01 13.9235H32.73V9.33351C32.2625 9.26976 30.6475 9.14226 28.7775 9.14226C24.8463 9.14226 22.1688 11.5223 22.1688 15.921V19.7035H17.7275V24.8248H22.1688V37.9998H5.89125C5.39332 37.9998 4.91547 37.8035 4.56139 37.4534C4.20732 37.1033 4.00559 36.6277 4 36.1298V5.86976C4 4.82851 4.85 3.99976 5.89125 3.99976Z" fill="currentColor"/>
</symbol>

<symbol id="instagram" viewBox="0 0 42 42" fill="none" xmlns="http://www.w3.org/2000/svg">
<rect x="4" y="4" width="34" height="34" rx="2" fill="currentColor"/>
<rect x="10" y="10" width="22" height="22" rx="2" fill="white"/>
<path d="M21 17.528C20.3133 17.528 19.642 17.7316 19.0711 18.1131C18.5001 18.4946 18.0551 19.0369 17.7923 19.6713C17.5295 20.3057 17.4607 21.0039 17.5947 21.6774C17.7287 22.3509 18.0594 22.9695 18.5449 23.4551C19.0305 23.9406 19.6491 24.2713 20.3226 24.4053C20.9961 24.5393 21.6943 24.4705 22.3287 24.2077C22.9631 23.9449 23.5054 23.4999 23.8869 22.9289C24.2684 22.358 24.472 21.6867 24.472 21C24.472 20.5441 24.3822 20.0926 24.2077 19.6713C24.0332 19.2501 23.7775 18.8673 23.4551 18.5449C23.1327 18.2225 22.7499 17.9668 22.3287 17.7923C21.9074 17.6178 21.4559 17.528 21 17.528ZM34.902 14.098C34.8946 13.0169 34.6956 11.9456 34.314 10.934C34.033 10.1938 33.5982 9.52153 33.0383 8.96166C32.4785 8.40179 31.8062 7.967 31.066 7.686C30.0544 7.30445 28.9831 7.10537 27.902 7.098C26.096 7 25.564 7 21 7C16.436 7 15.904 7 14.098 7.098C13.0169 7.10537 11.9456 7.30445 10.934 7.686C10.1938 7.967 9.52153 8.40179 8.96166 8.96166C8.40179 9.52153 7.967 10.1938 7.686 10.934C7.30445 11.9456 7.10537 13.0169 7.098 14.098C7 15.904 7 16.436 7 21C7 25.564 7 26.096 7.098 27.902C7.11307 28.9869 7.31188 30.0615 7.686 31.08C7.96576 31.8169 8.40018 32.4852 8.96 33.04C9.51747 33.6032 10.1911 34.038 10.934 34.314C11.9456 34.6956 13.0169 34.8946 14.098 34.902C15.904 35 16.436 35 21 35C25.564 35 26.096 35 27.902 34.902C28.9831 34.8946 30.0544 34.6956 31.066 34.314C31.8089 34.038 32.4825 33.6032 33.04 33.04C33.5998 32.4852 34.0342 31.8169 34.314 31.08C34.6952 30.0634 34.8942 28.9877 34.902 27.902C35 26.096 35 25.564 35 21C35 16.436 35 15.904 34.902 14.098ZM31.346 25.298C31.3011 26.1619 31.1167 27.0129 30.8 27.818C30.5282 28.4896 30.1242 29.0996 29.6119 29.6119C29.0996 30.1242 28.4896 30.5282 27.818 30.8C27.0053 31.099 26.1496 31.2645 25.284 31.29H16.716C15.8504 31.2645 14.9947 31.099 14.182 30.8C13.4877 30.542 12.8608 30.1304 12.348 29.596C11.8407 29.0938 11.449 28.487 11.2 27.818C10.8998 27.0062 10.7388 26.1494 10.724 25.284V21V16.716C10.7388 15.8506 10.8998 14.9938 11.2 14.182C11.458 13.4877 11.8696 12.8608 12.404 12.348C12.9085 11.8435 13.5146 11.4521 14.182 11.2C14.9947 10.901 15.8504 10.7355 16.716 10.71H25.284C26.1496 10.7355 27.0053 10.901 27.818 11.2C28.5123 11.458 29.1392 11.8696 29.652 12.404C30.1593 12.9062 30.551 13.513 30.8 14.182C31.099 14.9947 31.2645 15.8504 31.29 16.716V21C31.29 23.884 31.388 24.178 31.346 25.284V25.298ZM29.106 14.882C28.9393 14.4298 28.6765 14.0191 28.3357 13.6783C27.9949 13.3375 27.5842 13.0747 27.132 12.908C26.5111 12.6928 25.8571 12.5885 25.2 12.6H16.8C16.1396 12.6065 15.4855 12.7297 14.868 12.964C14.4227 13.1231 14.0164 13.3752 13.676 13.7035C13.3357 14.0318 13.0691 14.4287 12.894 14.868C12.6907 15.4915 12.5914 16.1442 12.6 16.8V25.2C12.6139 25.8597 12.7369 26.5125 12.964 27.132C13.1307 27.5842 13.3935 27.9949 13.7343 28.3357C14.0751 28.6765 14.4858 28.9393 14.938 29.106C15.5353 29.3257 16.1639 29.4486 16.8 29.47H25.2C25.8604 29.4635 26.5145 29.3403 27.132 29.106C27.5842 28.9393 27.9949 28.6765 28.3357 28.3357C28.6765 27.9949 28.9393 27.5842 29.106 27.132C29.3403 26.5145 29.4635 25.8604 29.47 25.2V21V16.8C29.4704 16.1389 29.3469 15.4836 29.106 14.868V14.882ZM21 26.348C20.2983 26.348 19.6036 26.2096 18.9555 25.9406C18.3075 25.6717 17.7188 25.2776 17.2233 24.7808C16.7278 24.284 16.3352 23.6943 16.068 23.0455C15.8008 22.3968 15.6642 21.7016 15.666 21C15.666 19.9417 15.98 18.9071 16.5683 18.0274C17.1565 17.1476 17.9926 16.4621 18.9707 16.0578C19.9487 15.6534 21.0247 15.5483 22.0625 15.7558C23.1003 15.9633 24.0532 16.474 24.8006 17.2234C25.5479 17.9727 26.0562 18.9269 26.2609 19.9653C26.4657 21.0036 26.3578 22.0793 25.9509 23.0563C25.544 24.0333 24.8563 24.8676 23.975 25.4535C23.0937 26.0395 22.0583 26.3508 21 26.348ZM26.6 16.702C26.2905 16.6692 26.0041 16.5231 25.796 16.2918C25.5878 16.0604 25.4726 15.7602 25.4726 15.449C25.4726 15.1378 25.5878 14.8376 25.796 14.6062C26.0041 14.3749 26.2905 14.2288 26.6 14.196C26.9095 14.2288 27.1959 14.3749 27.404 14.6062C27.6122 14.8376 27.7274 15.1378 27.7274 15.449C27.7274 15.7602 27.6122 16.0604 27.404 16.2918C27.1959 16.5231 26.9095 16.6692 26.6 16.702Z" fill="currentColor"/>
</symbol>

<symbol id="elbrus" viewBox="0 0 1029 1029" fill="none" xmlns="http://www.w3.org/2000/svg">
<path d="M477 71.4244C453.169 74.5534 429.576 76.2485 406 81.6512C344.297 95.7911 285.088 124.041 235 162.651C188.917 198.174 149.548 242.469 120.579 293C12.0557 482.294 56.1851 731.214 228 867.996C275.604 905.894 330.512 933.513 389 950.091C446.559 966.405 508.85 969.075 568 961.715C630.446 953.946 690.39 931.359 744 898.797C788.616 871.698 829.27 835.558 860.87 794C983.446 632.791 987.148 404.171 861.576 243C834.383 208.098 802.237 177.16 766 151.721C725.862 123.542 681.151 101.843 634 88.2909C585.058 74.2239 528.004 64.7274 477 71.4244Z" fill="currentColor"/>
<path d="M139 724C150.838 715.661 160.764 703.236 171 693C203.741 660.259 233.008 624.416 264.961 591C272.796 582.806 279.341 572.617 288.004 565.326C301.078 554.321 316.209 563.432 328.996 554.211C346.723 541.427 352.872 520.229 375 511.814C404.654 500.538 420.938 526.068 441 543.271C448.024 549.293 461.459 564.208 471.985 558.821C478.296 555.592 482.483 546.668 486.344 541C493.801 530.052 501.999 519.254 510.884 509.424C526.307 492.363 545.286 489.612 564 477.935C585.119 464.757 602.179 445.731 623 432.003C633.989 424.758 647.342 417.728 661 419.174C672.24 420.363 683.072 426.789 693 431.753C716.095 443.3 736.274 458.16 758 471.947C810.642 505.352 866.39 536.29 928 549C931.911 535.77 929.636 518.629 929.039 505C927.703 474.485 924.31 444.752 916.873 415C877.546 257.65 745.164 131.311 585 102.424C405.694 70.0858 222.438 156.915 135.309 318C104.383 375.175 91.9095 435.119 85.8303 499C80.3818 556.254 92.9519 618.881 114.2 672C121.245 689.612 128.517 708.105 139 724ZM666 464C661.877 475.315 667.303 490.747 678.001 496.911C684.445 500.624 692.409 501.162 699 504.876C706.308 508.993 712.831 516.83 721 519.043C728.143 520.978 748.133 515.304 748.133 528.985C748.133 536.685 734.172 536.897 729 537.576C720.798 538.653 713.117 535.398 705 535.039C694.6 534.58 684.419 537.049 674 536.999C668.102 536.971 661.986 536.694 659 531C664.386 529.885 680.928 523.639 672.552 515.564C667.777 510.961 657.999 513.568 652 511.452C640.623 507.44 635.987 498.597 630.073 489.004C627.607 485.002 621.669 477.381 616.104 480.072C611.411 482.341 609.112 489.582 607.139 494C601.962 505.592 596.644 517.193 589.936 528C571.299 558.022 539.354 575.605 516.424 602C508.022 611.673 495.033 631.37 482 634C483.717 624.485 491.454 615.576 497.127 608C511.894 588.28 530.6 572.291 545.789 553C552.282 544.754 565.863 526.491 561.257 515.044C557.427 505.525 543.621 511.765 538 515.789C521.963 527.269 511.851 550.802 500.999 567C486.957 587.96 473.399 609.671 455.91 627.985C408.548 677.584 344.64 711.626 279 728.884C258.865 734.178 236.948 741.568 216 742C219.001 736.263 226.281 734.976 232 732.808C245.636 727.639 259.451 723.02 273 717.6C318.572 699.371 363.697 677.173 402 646.195C414.432 636.141 425.822 623.243 434.783 610C439.508 603.018 442.756 594.842 437.995 587C431.828 576.845 419.029 571.469 408 568.63C400.637 566.734 392.648 564.742 385 565.04C341.869 566.721 326.918 608.199 310.244 641C305.157 651.007 292.775 680.654 284 661C264.72 668.804 256.498 695.593 233 698C234.964 688.236 245.701 679.481 251.919 672C266.236 654.774 287.704 632.299 293 610L292 609C269.297 614.395 251.697 636.303 236 652C207.922 680.078 178.026 711.5 143 731C164.872 777.791 207.895 820.165 248 851.424C411.9 979.176 649.842 966.544 800 822.961C838.086 786.542 868.468 742.592 890.78 695C911.074 651.712 924.234 603.72 928 556C877.461 556 828.899 529.04 782 512.695C767.696 507.71 752.814 502.869 738 499.662C729.084 497.732 719.474 497.704 711 494.124C694.375 487.102 683.624 469.186 666 464Z" fill="#0D1118"/>
</symbol>

<symbol id="form-r" viewBox="0 0 12 13" fill="none" xmlns="http://www.w3.org/2000/svg">
<path d="M6.76172 10.583H3.81738V13H2.13867V10.583H0.319336V9.19434H2.13867V7.99023H0.319336V6.61035H2.13867V0.203125H6.8584C8.22949 0.203125 9.31641 0.551758 10.1191 1.24902C10.9219 1.94629 11.3232 2.88965 11.3232 4.0791C11.3232 5.32715 10.9365 6.29102 10.1631 6.9707C9.39551 7.64453 8.30273 7.98438 6.88477 7.99023H3.81738V9.19434H6.76172V10.583ZM3.81738 6.61035H6.8584C7.7666 6.61035 8.45801 6.39648 8.93262 5.96875C9.40723 5.54102 9.64453 4.91699 9.64453 4.09668C9.64453 3.35254 9.39844 2.75195 8.90625 2.29492C8.41406 1.83203 7.74902 1.59766 6.91113 1.5918H3.81738V6.61035Z" fill="#828282"/>
</symbol>

<symbol id="form-email" viewBox="0 0 24 24" fill="none" xmlns="http://www.w3.org/2000/svg">
<path d="M21 7.43322L11.5 14.9349L2 7.43322V7H21V7.43322ZM21 18.013L14.7161 13.8404L21 8.8241V18.013ZM2 8.8241L8.28385 13.8404L2 18.013V8.8241ZM11.5 16.4169L14.0977 14.3192L21 18.9023V18.9935H2V18.9023L8.90234 14.3192L11.5 16.4169Z" fill="currentColor"/>
</symbol>

</svg>
