<svg width="65" height="65" viewBox="0 0 65 65" fill="none" xmlns="http://www.w3.org/2000/svg">
<path d="M55.8594 7.10938H9.14062C8.01709 7.10938 7.10938 8.01709 7.10938 9.14062V55.8594C7.10938 56.9829 8.01709 57.8906 9.14062 57.8906H55.8594C56.9829 57.8906 57.8906 56.9829 57.8906 55.8594V9.14062C57.8906 8.01709 56.9829 7.10938 55.8594 7.10938ZM39.6094 24.1782C39.6094 24.8257 39.2983 25.4414 38.7715 25.8223L29.542 32.5L38.7715 39.1777C39.2983 39.5586 39.6094 40.168 39.6094 40.8218V43.7988C39.6094 44.2114 39.1396 44.4526 38.8032 44.2114L23.188 32.9126C23.1231 32.8658 23.0703 32.8043 23.0338 32.7332C22.9974 32.662 22.9784 32.5831 22.9784 32.5032C22.9784 32.4232 22.9974 32.3444 23.0338 32.2732C23.0703 32.202 23.1231 32.1405 23.188 32.0938L38.8032 20.7949C39.1396 20.5537 39.6094 20.7949 39.6094 21.2075V24.1782Z" fill="#E7E8EC"/>
</svg>
