<svg width="42" height="42" viewBox="0 0 42 42" fill="none" xmlns="http://www.w3.org/2000/svg">
<rect x="4" y="4" width="34" height="34" rx="2" fill="white"/>
<path d="M5.89125 3.99976H36.13C37.1713 3.99976 38 4.82851 38 5.86976V36.1298C38 37.1498 37.1713 37.9998 36.13 37.9998H27.46V24.8248H31.88L32.5387 19.7035H27.46V16.431C27.46 14.9435 27.885 13.9235 30.01 13.9235H32.73V9.33351C32.2625 9.26976 30.6475 9.14226 28.7775 9.14226C24.8463 9.14226 22.1688 11.5223 22.1688 15.921V19.7035H17.7275V24.8248H22.1688V37.9998H5.89125C5.39332 37.9998 4.91547 37.8035 4.56139 37.4534C4.20732 37.1033 4.00559 36.6277 4 36.1298V5.86976C4 4.82851 4.85 3.99976 5.89125 3.99976Z" fill="#0D1118"/>
</svg>
