<svg width="100" height="100" viewBox="0 0 100 100" fill="none" xmlns="http://www.w3.org/2000/svg">
<path d="M50 100C22.3858 100 0 77.6142 0 50C0 22.3858 22.3858 0 50 0C77.6142 0 100 22.3858 100 50C100 77.6142 77.6142 100 50 100Z" fill="#F21C1C"/>
<path d="M0.0364761 51.8123L33.9439 25.0674L58.6475 35.117L70.1086 71.2997L36.2912 98.0967C15.8979 92.2952 0.822334 73.8734 0.0364761 51.8123Z" fill="#3C556B"/>
<path d="M0.0364761 51.8123L33.9439 25.0674L58.6475 35.117L70.1086 71.2997L36.2912 98.0967C15.8979 92.2952 0.822334 73.8734 0.0364761 51.8123Z" fill="#CB0B0A"/>
<path d="M20.3949 50C20.3949 33.6496 33.6498 20.3949 50.0006 20.3949C66.3503 20.3949 79.6051 33.6498 79.6051 50C79.6051 66.3502 66.3501 79.6051 50.0006 79.6051C33.6496 79.6051 20.3949 66.3504 20.3949 50ZM41.9503 63.0197L63.5145 50L41.9503 36.9803V63.0197Z" fill="white"/>
</svg>
