<svg width="26" height="24" viewBox="0 0 26 24" fill="none" xmlns="http://www.w3.org/2000/svg">
<path d="M1.60205 12.7856V22.3979C1.60205 23.2823 2.32137 24 3.20411 24H11.2144V12.7856H1.60205Z" fill="#161C40"/>
<path d="M24.0308 6.37738H18.9619C19.3256 6.12907 19.638 5.88235 19.8559 5.66127C21.1487 4.362 21.1487 2.24728 19.8559 0.948017C18.5999 -0.317607 16.4115 -0.314403 15.1571 0.948017C14.4618 1.64491 12.6194 4.48215 12.8741 6.37738H12.7588C13.0119 4.48215 11.1695 1.64491 10.4758 0.948017C9.21983 -0.314403 7.03142 -0.314403 5.77701 0.948017C4.48576 2.24728 4.48576 4.362 5.77541 5.66127C5.99489 5.88235 6.30729 6.12907 6.67096 6.37738H1.60206C0.719323 6.37738 0 7.09671 0 7.97944V10.3825C0 10.8247 0.35886 11.1836 0.801028 11.1836H11.2144V7.97944H14.4185V11.1836H24.8319C25.274 11.1836 25.6329 10.8247 25.6329 10.3825V7.97944C25.6329 7.09671 24.9152 6.37738 24.0308 6.37738ZM11.1199 6.32452C11.1199 6.32452 11.0526 6.37738 10.8235 6.37738C9.71647 6.37738 7.60336 5.22711 6.91287 4.53182C6.24161 3.85575 6.24161 2.75353 6.91287 2.07747C7.23809 1.75065 7.66904 1.57122 8.12723 1.57122C8.58381 1.57122 9.01477 1.75065 9.33998 2.07747C10.4198 3.16366 11.4931 5.93842 11.1199 6.32452ZM14.8078 6.37738C14.5803 6.37738 14.513 6.32612 14.513 6.32452C14.1397 5.93842 15.2131 3.16366 16.2929 2.07747C16.9385 1.42543 18.068 1.42223 18.72 2.07747C19.3929 2.75353 19.3929 3.85575 18.72 4.53182C18.0295 5.22711 15.9164 6.37738 14.8078 6.37738Z" fill="#161C40"/>
<path d="M14.4185 12.7856V24H22.4287C23.3131 24 24.0308 23.2823 24.0308 22.3979V12.7856H14.4185Z" fill="#161C40"/>
</svg>
