<svg width="15" height="14" viewBox="0 0 15 14" fill="none" xmlns="http://www.w3.org/2000/svg">
<path d="M14.05 10.8182C14.05 9.69812 13.2236 8.77836 12.1542 8.62034V7.81818C12.1542 7.18925 11.646 6.67726 11.0208 6.67726H7.82082V5.37966C8.8903 5.22164 9.71666 4.30191 9.71666 3.18182C9.71666 1.9515 8.72288 0.95 7.5 0.95C6.27712 0.95 5.28334 1.9515 5.28334 3.18182C5.28334 4.30191 6.1097 5.22167 7.17918 5.37966V6.67726H3.97918C3.35404 6.67726 2.84584 7.18922 2.84584 7.81818V8.62034C1.77635 8.77836 0.95 9.69812 0.95 10.8182C0.95 12.0485 1.94378 13.05 3.16666 13.05C4.38954 13.05 5.38332 12.0485 5.38332 10.8182C5.38332 9.69809 4.55696 8.77833 3.48747 8.62034V7.81818C3.48747 7.54477 3.70824 7.32274 3.97913 7.32274H11.0208C11.2918 7.32274 11.5125 7.54477 11.5125 7.81818V8.62034C10.443 8.77836 9.61666 9.69809 9.61666 10.8182C9.61666 12.0485 10.6104 13.05 11.8333 13.05C13.0562 13.05 14.05 12.0485 14.05 10.8182ZM4.74166 10.8182C4.74166 11.6933 4.0348 12.4046 3.16666 12.4046C2.29851 12.4046 1.59166 11.6933 1.59166 10.8182C1.59166 9.94312 2.29851 9.23182 3.16666 9.23182C4.0348 9.23182 4.74166 9.94314 4.74166 10.8182ZM5.925 3.18182C5.925 2.30675 6.63186 1.59545 7.5 1.59545C8.36814 1.59545 9.075 2.30675 9.075 3.18182C9.075 4.05689 8.36814 4.76818 7.5 4.76818C6.63186 4.76818 5.925 4.05686 5.925 3.18182ZM11.8333 12.4046C10.9652 12.4046 10.2583 11.6933 10.2583 10.8182C10.2583 9.94312 10.9652 9.23182 11.8333 9.23182C12.7015 9.23182 13.4083 9.94312 13.4083 10.8182C13.4083 11.6933 12.7015 12.4046 11.8333 12.4046Z" fill="#2276F9" stroke="#2276F9" stroke-width="0.1"/>
</svg>
