<svg width="12" height="12" viewBox="0 0 12 12" fill="none" xmlns="http://www.w3.org/2000/svg">
<path fill-rule="evenodd" clip-rule="evenodd" d="M5.62343 12H6.37655C6.98569 12 7.48125 11.5044 7.48125 10.8954V10.6406C7.74021 10.5578 7.99181 10.4534 8.23352 10.3283L8.41392 10.5087C8.8504 10.9457 9.55076 10.935 9.97636 10.5089L10.5087 9.97655C10.9342 9.55146 10.9463 8.8511 10.5088 8.41409L10.3283 8.23352C10.4534 7.99181 10.5578 7.74023 10.6405 7.48125H10.8953C11.5044 7.48125 12 6.98569 12 6.37657V5.62343C12 5.01431 11.5044 4.51875 10.8953 4.51875H10.6405C10.5578 4.25974 10.4534 4.00819 10.3283 3.76648L10.5087 3.58605C10.9464 3.14878 10.9342 2.44849 10.5088 2.02359L9.97655 1.49133C9.55193 1.06615 8.85141 1.0533 8.41409 1.49116L8.23352 1.67173C7.99181 1.54664 7.74021 1.4422 7.48125 1.35947V1.10468C7.48125 0.495562 6.98569 0 6.37657 0H5.62345C5.01431 0 4.51875 0.495562 4.51875 1.10468V1.35945C4.25979 1.4422 4.00819 1.54664 3.76648 1.6717L3.58608 1.4913C3.1496 1.05434 2.44924 1.06498 2.02364 1.49116L1.4913 2.02348C1.06575 2.44856 1.05368 3.14892 1.49116 3.58594L1.67173 3.76648C1.54664 4.00819 1.44223 4.25977 1.35947 4.51875H1.1047C0.495586 4.51875 0 5.01431 0 5.62343V6.37657C0 6.98569 0.495586 7.48125 1.10468 7.48125H1.35945C1.4422 7.74026 1.54662 7.99181 1.6717 8.23352L1.49128 8.41395C1.05354 8.85122 1.06577 9.55151 1.49114 9.97641L2.02343 10.5087C2.44805 10.9339 3.14857 10.9467 3.58589 10.5088L3.76645 10.3283C4.00816 10.4534 4.25977 10.5578 4.51873 10.6405V10.8953C4.51873 11.5044 5.01431 12 5.62343 12ZM4.95816 10.0358C4.58119 9.93853 4.21978 9.78851 3.88399 9.58992C3.714 9.48938 3.54002 9.56032 3.4564 9.64392L3.08857 10.0118C2.9298 10.1708 2.67518 10.1662 2.5208 10.0116L1.98818 9.47902C1.83352 9.32454 1.82937 9.07001 1.98832 8.91124L2.35603 8.54353C2.46952 8.43005 2.49173 8.25413 2.41005 8.11598C2.21149 7.78022 2.06147 7.41881 1.96418 7.04182C1.9241 6.88659 1.78411 6.77813 1.62377 6.77813H1.1047C0.883289 6.77813 0.703125 6.59798 0.703125 6.37657V5.62343C0.703125 5.40202 0.883289 5.22187 1.1047 5.22185H1.6238C1.78411 5.22185 1.92412 5.11341 1.9642 4.95816C2.06149 4.58116 2.21149 4.21976 2.41008 3.88399C2.49176 3.74585 2.46954 3.56993 2.35605 3.45645L1.9882 3.08859C1.82892 2.9295 1.83408 2.6749 1.98834 2.52082L2.52101 1.98818C2.67563 1.8333 2.93023 1.82963 3.08876 1.98834L3.45645 2.35605C3.56993 2.46954 3.74583 2.49176 3.88402 2.41008C4.2198 2.21149 4.58121 2.06147 4.95818 1.96418C5.11343 1.92412 5.2219 1.78411 5.2219 1.62377V1.10468C5.2219 0.883266 5.40206 0.703125 5.62348 0.703125H6.37659C6.59801 0.703125 6.77817 0.883266 6.77817 1.10468V1.62382C6.77817 1.78416 6.88664 1.92417 7.04189 1.96423C7.41886 2.06152 7.78027 2.21154 8.11605 2.41013C8.25417 2.49183 8.43014 2.46961 8.54362 2.3561L8.91145 1.98825C9.07022 1.82927 9.32484 1.8338 9.47923 1.98839L10.0118 2.52101C10.1665 2.67548 10.1707 2.93002 10.0117 3.08878L9.64399 3.45649C9.53051 3.56998 9.50829 3.7459 9.58997 3.88404C9.78853 4.2198 9.93855 4.58121 10.0358 4.9582C10.0759 5.11343 10.2159 5.2219 10.3763 5.2219H10.8953C11.1167 5.2219 11.2969 5.40204 11.2969 5.62345V6.37659C11.2969 6.59801 11.1167 6.77815 10.8953 6.77815H10.3763C10.2159 6.77815 10.0759 6.88659 10.0358 7.04184C9.93855 7.41884 9.78855 7.78024 9.58997 8.11601C9.50829 8.25415 9.53051 8.43007 9.64399 8.54355L10.0118 8.91141C10.1711 9.07048 10.166 9.3251 10.0117 9.47918L9.47904 10.0118C9.3244 10.1667 9.06982 10.1704 8.91129 10.0117L8.5436 9.64395C8.43009 9.53044 8.2542 9.50822 8.11603 9.58992C7.78024 9.78851 7.41884 9.93853 7.04187 10.0358C6.88662 10.0759 6.77815 10.2159 6.77815 10.3762V10.8953C6.77815 11.1167 6.59798 11.2969 6.37657 11.2969H5.62345C5.40204 11.2969 5.22188 11.1167 5.22188 10.8953V10.3762C5.22188 10.2159 5.11341 10.0759 4.95816 10.0358ZM3.38892 6.00001C3.38892 7.43968 4.56016 8.61094 5.99985 8.61094C7.43955 8.61094 8.61079 7.43968 8.61079 6.00001C8.61079 4.56033 7.43955 3.38907 5.99985 3.38907C4.56016 3.38907 3.38892 4.56033 3.38892 6.00001ZM4.09204 6.00001C4.09204 4.94804 4.94786 4.09219 5.99985 4.09219C7.05185 4.09219 7.90767 4.94804 7.90767 6.00001C7.90767 7.05198 7.05182 7.90782 5.99985 7.90782C4.94788 7.90782 4.09204 7.05198 4.09204 6.00001Z" fill="#2276F9"/>
</svg>
