<svg width="95" height="95" viewBox="0 0 95 95" fill="none" xmlns="http://www.w3.org/2000/svg">
<path d="M51.9648 42.7397V29.9963C51.9648 29.1874 51.309 28.5314 50.5 28.5314C49.691 28.5314 49.0352 29.1874 49.0352 29.9963V42.7397C48.7338 42.8326 48.4451 42.9538 48.171 43.0994L44.1383 39.0667C43.5663 38.4949 42.6388 38.4949 42.0666 39.0667C41.4946 39.6388 41.4946 40.5663 42.0666 41.1385L46.0993 45.1712C45.7299 45.8665 45.5195 46.659 45.5195 47.5C45.5195 50.2463 47.7537 52.4805 50.5 52.4805C53.2463 52.4805 55.4805 50.2463 55.4805 47.5C55.4805 45.2633 53.9983 43.3666 51.9648 42.7397ZM50.5 49.5508C49.3691 49.5508 48.4492 48.6308 48.4492 47.5C48.4492 46.3691 49.3691 45.4492 50.5 45.4492C51.6309 45.4492 52.5508 46.3691 52.5508 47.5C52.5508 48.6307 51.6309 49.5508 50.5 49.5508Z" fill="#0D1118"/>
<path d="M51.4785 70.8291C51.2061 70.5565 50.8281 70.3999 50.4429 70.3999C50.0576 70.3999 49.6797 70.5565 49.4072 70.8291C49.1348 71.1015 48.978 71.4795 48.978 71.8647C48.978 72.2514 49.1348 72.6279 49.4072 72.9002C49.6797 73.1741 50.0576 73.3296 50.4429 73.3296C50.8281 73.3296 51.2061 73.1741 51.4785 72.9002C51.751 72.6279 51.9077 72.25 51.9077 71.8647C51.9077 71.4795 51.751 71.1015 51.4785 70.8291Z" fill="#0D1118"/>
<path d="M34.2505 63.6924C33.978 63.4199 33.6001 63.263 33.2148 63.263C32.8281 63.263 32.4517 63.4198 32.1792 63.6924C31.9053 63.9647 31.75 64.3426 31.75 64.7295C31.75 65.1147 31.9053 65.4927 32.1792 65.765C32.4517 66.0374 32.8281 66.1943 33.2148 66.1943C33.6001 66.1943 33.9766 66.0376 34.2505 65.765C34.523 65.4911 34.6797 65.1147 34.6797 64.7295C34.6797 64.3426 34.523 63.9663 34.2505 63.6924Z" fill="#0D1118"/>
<path d="M27.1138 46.4642C26.8413 46.1917 26.4634 46.035 26.0781 46.035C25.6929 46.035 25.3149 46.1917 25.0425 46.4642C24.7686 46.7366 24.6133 47.1146 24.6133 47.4998C24.6133 47.8851 24.7686 48.263 25.0425 48.5353C25.3149 48.8078 25.6929 48.9647 26.0781 48.9647C26.4634 48.9647 26.8413 48.8079 27.1138 48.5353C27.3862 48.263 27.543 47.8851 27.543 47.4998C27.543 47.1146 27.3862 46.7366 27.1138 46.4642Z" fill="#0D1118"/>
<path d="M34.2505 29.2348C33.978 28.9625 33.6001 28.8056 33.2148 28.8056C32.8281 28.8056 32.4517 28.9624 32.1792 29.2348C31.9053 29.5088 31.75 29.8852 31.75 30.2705C31.75 30.6557 31.9053 31.0337 32.1792 31.3076C32.4517 31.5799 32.8281 31.7368 33.2148 31.7368C33.6001 31.7366 33.9766 31.5799 34.2505 31.3076C34.523 31.0337 34.6797 30.6572 34.6797 30.2705C34.6797 29.8852 34.523 29.5073 34.2505 29.2348Z" fill="#0D1118"/>
<path d="M51.4785 22.0996C51.2061 21.8257 50.8296 21.6704 50.4429 21.6704C50.0576 21.6704 49.6797 21.8257 49.4072 22.0996C49.1348 22.372 48.978 22.7487 48.978 23.1352C48.978 23.5205 49.1348 23.8984 49.4072 24.1709C49.6797 24.4432 50.0576 24.6001 50.4429 24.6001C50.8296 24.6001 51.2061 24.4433 51.4785 24.1709C51.751 23.8984 51.9077 23.5205 51.9077 23.1352C51.9077 22.75 51.751 22.372 51.4785 22.0996Z" fill="#0D1118"/>
<path d="M68.708 63.6924C68.4355 63.4199 68.0576 63.263 67.6724 63.263C67.2856 63.263 66.9092 63.4198 66.6352 63.6924C66.3628 63.9663 66.2075 64.3426 66.2075 64.7295C66.2075 65.1147 66.3628 65.4911 66.6352 65.765C66.9092 66.0374 67.2871 66.1943 67.6724 66.1943C68.0576 66.1943 68.4355 66.0376 68.708 65.765C68.9805 65.4911 69.1372 65.1147 69.1372 64.7295C69.1372 64.3426 68.9805 63.9663 68.708 63.6924Z" fill="#0D1118"/>
<path d="M86.5352 46.0352H79.7969C78.9878 46.0352 78.332 46.6911 78.332 47.5C78.332 62.8466 65.8467 75.3319 50.5002 75.3321C43.0428 75.3321 36.0471 72.4434 30.8018 67.1982C25.5566 61.9529 22.668 54.9571 22.668 47.4999C22.6681 32.1533 35.1534 19.668 50.5 19.668C53.8251 19.668 57.053 20.2418 60.1234 21.3761L58.0334 23.4662C57.6145 23.8851 57.4892 24.5152 57.716 25.0626C57.9427 25.6098 58.4768 25.9668 59.0693 25.9668H72.0543C72.8633 25.9668 73.5191 25.3109 73.5191 24.502V11.517C73.5191 10.9245 73.1622 10.3904 72.6149 10.1638C72.0678 9.93703 71.4376 10.0624 71.0185 10.4812L67.4556 14.044C62.3206 11.4401 56.5829 10.0451 50.7914 10.0009C42.7403 9.94567 35.0257 12.4437 28.4746 17.2421C27.822 17.7202 27.6804 18.6367 28.1585 19.2895C28.6365 19.9422 29.553 20.0839 30.2059 19.6056C36.1728 15.2351 43.1856 12.9297 50.504 12.9297C50.5921 12.9297 50.6809 12.93 50.7691 12.9307C56.449 12.9739 62.0709 14.4256 67.0272 17.1287C67.5978 17.4398 68.3049 17.338 68.7644 16.8785L70.5893 15.0536V23.0371H62.6058L63.7451 21.8978C64.0841 21.5588 64.2358 21.0753 64.151 20.6033C64.0662 20.1313 63.7561 19.7307 63.3205 19.5307C59.2845 17.6777 54.971 16.7383 50.5 16.7383C33.5381 16.7383 19.7384 30.5379 19.7383 47.4999C19.7383 55.7398 22.9316 63.4711 28.7302 69.2697C34.529 75.0684 42.2603 78.2619 50.5002 78.2617C66.9714 78.2616 80.4605 65.2497 81.2273 48.9649H85.0397C84.2691 67.3498 69.0711 82.0703 50.5 82.0703C31.438 82.0703 15.9298 66.5623 15.9297 47.5003C15.9297 40.581 18.0125 33.8806 21.9534 28.1239C22.4104 27.4564 22.2396 26.5448 21.5721 26.0878C20.9044 25.6306 19.9929 25.8014 19.5358 26.4693C15.26 32.7152 13 39.9877 13 47.5003C13 57.5169 16.9007 66.934 23.9835 74.0168C31.0664 81.0996 40.4834 85 50.5 85C60.5166 85 69.9336 81.0993 77.0166 74.0166C84.0996 66.934 88 57.5166 88 47.5C88 46.691 87.3442 46.0352 86.5352 46.0352Z" fill="#0D1118"/>
<path d="M25.9491 21.2081C25.377 20.6362 24.4495 20.6362 23.8773 21.2081L23.8472 21.2388C23.2855 21.8213 23.298 22.7531 23.8804 23.3147C24.1659 23.5899 24.533 23.7273 24.8994 23.7273C25.2805 23.7273 25.6609 23.5785 25.9473 23.2816L24.9133 22.244L25.9491 23.2798C26.5211 22.7078 26.5211 21.7802 25.9491 21.2081Z" fill="#0D1118"/>
<path d="M50.5 64.0527C41.3727 64.0527 33.9473 56.6273 33.9473 47.5C33.9473 46.6911 33.2914 46.0352 32.4824 46.0352C31.6734 46.0352 31.0176 46.6911 31.0176 47.5C31.0176 58.2427 39.7574 66.9824 50.5 66.9824C51.309 66.9824 51.9648 66.3265 51.9648 65.5176C51.9648 64.7087 51.309 64.0527 50.5 64.0527Z" fill="#0D1118"/>
<path d="M70.1447 34.8872L73.2249 31.5621V28.9191H62.4761V32.1803H68.3391L65.6837 35.0578V37.7221H67.4469C69.0613 37.7221 69.7198 38.2763 69.7198 39.1715C69.7198 40.1733 68.7852 40.7275 67.3619 40.7275C65.9599 40.7275 64.4304 40.3012 63.2408 39.4913L61.7113 42.6672C63.2408 43.6264 65.4288 44.1379 67.4893 44.1379C71.9716 44.1379 73.9684 41.708 73.9684 39.1715C73.9684 37.0401 72.6513 35.4201 70.1447 34.8872Z" fill="#0D1118"/>
<path d="M81.4573 44.1379C85.2385 44.1379 88 41.303 88 36.3793C88 31.4555 85.2385 28.6207 81.4573 28.6207C77.6548 28.6207 74.8933 31.4555 74.8933 36.3793C74.8933 41.303 77.6548 44.1379 81.4573 44.1379ZM81.4573 40.6849C80.0977 40.6849 79.1206 39.5126 79.1206 36.3793C79.1206 33.246 80.0977 32.0737 81.4573 32.0737C82.7955 32.0737 83.7727 33.246 83.7727 36.3793C83.7727 39.5126 82.7955 40.6849 81.4573 40.6849Z" fill="#0D1118"/>
</svg>
