<svg width="95" height="95" viewBox="0 0 95 95" fill="none" xmlns="http://www.w3.org/2000/svg">
<path d="M69.7656 1.82472e-05C64.2495 -0.002196 58.9291 2.04437 54.8364 5.74276C50.7437 9.44114 48.1705 14.5277 47.6158 20.016C47.0611 25.5042 48.5644 31.0028 51.8343 35.4453C55.1042 39.8879 59.9075 42.9576 65.3125 44.0592V54.9219C65.3122 55.238 65.4128 55.546 65.5997 55.801C65.7866 56.056 66.05 56.2446 66.3516 56.3395C66.4959 56.3836 66.646 56.4061 66.7969 56.4063C67.0367 56.4064 67.273 56.3483 67.4855 56.2372C67.6979 56.126 67.8803 55.965 68.017 55.768L76.5522 43.4625C80.7778 42.1103 84.5006 39.5219 87.2397 36.0317C87.4779 35.7224 87.5846 35.3316 87.5368 34.9442C87.4889 34.5567 87.2903 34.2036 86.984 33.9616C86.6776 33.7195 86.2883 33.6078 85.9002 33.6508C85.5122 33.6938 85.1567 33.8879 84.9107 34.1911C82.4391 37.3417 79.0451 39.6417 75.2029 40.7699C74.8774 40.8656 74.5945 41.0699 74.4013 41.3488L68.2813 50.1719V42.8109C68.2813 42.4537 68.1525 42.1084 67.9186 41.8385C67.6847 41.5686 67.3612 41.3921 67.0077 41.3413C63.3492 40.8107 59.9203 39.2398 57.1293 36.8157C54.3382 34.3917 52.3027 31.2165 51.265 27.6684C50.2273 24.1203 50.2312 20.3486 51.2762 16.8027C52.3212 13.2567 54.3633 10.0857 57.1593 7.6674C59.9553 5.24907 63.3874 3.68525 67.047 3.16215C70.7065 2.63906 74.4393 3.17873 77.8009 4.71691C81.1624 6.25508 84.0111 8.72695 86.0077 11.8382C88.0043 14.9494 89.0646 18.5689 89.0625 22.2656C89.0617 24.7175 88.59 27.1464 87.6731 29.4203C87.5267 29.7859 87.5314 30.1946 87.6864 30.5566C87.8413 30.9187 88.1337 31.2043 88.4992 31.3508C88.8647 31.4972 89.2735 31.4925 89.6355 31.3375C89.9975 31.1826 90.2832 30.8902 90.4296 30.5247C91.7858 27.1478 92.2925 23.4897 91.9053 19.8713C91.5181 16.2529 90.2488 12.7849 88.2088 9.77141C86.1688 6.75794 83.4205 4.29116 80.2048 2.58749C76.9892 0.883833 73.4047 -0.00464308 69.7656 1.82472e-05Z" fill="#0D1118"/>
<path d="M78.6719 80.1563H75.7031V75.7031C75.7031 75.3095 75.5467 74.9319 75.2684 74.6535C74.99 74.3752 74.6124 74.2188 74.2188 74.2188V55.2692C74.2188 54.8756 74.0624 54.498 73.784 54.2196C73.5056 53.9412 73.1281 53.7849 72.7344 53.7849C72.3407 53.7849 71.9631 53.9412 71.6848 54.2196C71.4064 54.498 71.25 54.8756 71.25 55.2692V74.2188H68.2812V60.8594C68.2812 60.4657 68.1249 60.0882 67.8465 59.8098C67.5681 59.5314 67.1906 59.375 66.7969 59.375C66.4032 59.375 66.0256 59.5314 65.7473 59.8098C65.4689 60.0882 65.3125 60.4657 65.3125 60.8594V74.2188H62.3438V47.5C62.3438 47.1063 62.1874 46.7288 61.909 46.4504C61.6306 46.172 61.2531 46.0156 60.8594 46.0156C60.4657 46.0156 60.0881 46.172 59.8098 46.4504C59.5314 46.7288 59.375 47.1063 59.375 47.5V74.2188H48.9844V43.0469H51.7676C52.1613 43.0469 52.5388 42.8905 52.8172 42.6121C53.0956 42.3338 53.252 41.9562 53.252 41.5625C53.252 41.1688 53.0956 40.7913 52.8172 40.5129C52.5388 40.2345 52.1613 40.0781 51.7676 40.0781H5.9375V33.5261L41.5625 13.5761L44.4303 15.1822C44.7738 15.3747 45.1797 15.4229 45.5587 15.3161C45.9377 15.2094 46.2588 14.9564 46.4513 14.6129C46.6438 14.2695 46.692 13.8636 46.5852 13.4846C46.4785 13.1056 46.2255 12.7845 45.882 12.592L42.2884 10.5792C42.0663 10.4558 41.8165 10.3911 41.5625 10.3911C41.3085 10.3911 41.0587 10.4558 40.8366 10.5792L3.72727 31.3604C3.49705 31.4895 3.3054 31.6776 3.17207 31.9054C3.03875 32.1331 2.96856 32.3923 2.96875 32.6563V41.5625C2.96875 41.9562 3.12514 42.3338 3.40351 42.6121C3.68189 42.8905 4.05944 43.0469 4.45313 43.0469H8.90625V74.2188C8.51257 74.2188 8.13501 74.3752 7.85664 74.6535C7.57826 74.9319 7.42188 75.3095 7.42188 75.7031V80.1563H4.45313C4.05944 80.1563 3.68189 80.3127 3.40351 80.591C3.12514 80.8694 2.96875 81.247 2.96875 81.6406C2.96875 82.0343 3.12514 82.4119 3.40351 82.6903C3.68189 82.9686 4.05944 83.125 4.45313 83.125H77.1875V86.0938H4.45313C4.05944 86.0938 3.68189 86.2502 3.40351 86.5285C3.12514 86.8069 2.96875 87.1845 2.96875 87.5781C2.96875 87.9718 3.12514 88.3494 3.40351 88.6278C3.68189 88.9061 4.05944 89.0625 4.45313 89.0625H78.6719C79.0656 89.0625 79.4431 88.9061 79.7215 88.6278C79.9999 88.3494 80.1562 87.9718 80.1562 87.5781V81.6406C80.1562 81.247 79.9999 80.8694 79.7215 80.591C79.4431 80.3127 79.0656 80.1563 78.6719 80.1563ZM46.0156 43.0469V74.2188H43.0469V47.5C43.0469 47.1063 42.8905 46.7288 42.6121 46.4504C42.3337 46.172 41.9562 46.0156 41.5625 46.0156C41.1688 46.0156 40.7913 46.172 40.5129 46.4504C40.2345 46.7288 40.0781 47.1063 40.0781 47.5V74.2188H37.1094V43.0469H46.0156ZM23.75 74.2188V43.0469H34.1406V74.2188H23.75ZM11.875 43.0469H14.8438V69.7656C14.8438 70.1593 15.0001 70.5369 15.2785 70.8153C15.5569 71.0936 15.9344 71.25 16.3281 71.25C16.7218 71.25 17.0994 71.0936 17.3777 70.8153C17.6561 70.5369 17.8125 70.1593 17.8125 69.7656V43.0469H20.7812V74.2188H11.875V43.0469ZM10.3906 80.1563V77.1875H72.7344V80.1563H10.3906Z" fill="#0D1118"/>
<path d="M45.0226 33.0066C44.0183 33.7412 42.8068 34.1383 41.5625 34.1407C40.7285 34.1434 39.9033 33.9705 39.1407 33.6331C38.378 33.2957 37.695 32.8014 37.1361 32.1824C36.5771 31.5635 36.1549 30.8337 35.8968 30.0407C35.6387 29.2477 35.5506 28.4092 35.6381 27.5798C35.7257 26.7504 35.987 25.9488 36.405 25.2272C36.823 24.5055 37.3883 23.88 38.0642 23.3914C38.74 22.9028 39.5112 22.5621 40.3275 22.3914C41.1438 22.2207 41.9869 22.2239 42.8019 22.4007C42.9926 22.4416 43.1894 22.4445 43.3812 22.4092C43.5729 22.374 43.7559 22.3014 43.9195 22.1954C44.0832 22.0895 44.2244 21.9524 44.3351 21.7919C44.4458 21.6314 44.5238 21.4506 44.5646 21.26C44.6055 21.0694 44.6084 20.8725 44.5731 20.6808C44.5379 20.489 44.4653 20.3061 44.3593 20.1424C44.2534 19.9787 44.1163 19.8375 43.9558 19.7268C43.7953 19.6161 43.6145 19.5381 43.4239 19.4973C41.9722 19.1818 40.4647 19.2345 39.0385 19.6505C37.6124 20.0665 36.3129 20.8327 35.2586 21.8792C34.2042 22.9257 33.4283 24.2193 33.0016 25.6423C32.5749 27.0653 32.5109 28.5724 32.8155 30.0264C33.1201 31.4804 33.7836 32.8352 34.7455 33.9673C35.7074 35.0994 36.9372 35.9729 38.323 36.5082C39.7087 37.0436 41.2064 37.2238 42.6796 37.0325C44.1528 36.8412 45.5548 36.2843 46.7578 35.4128C46.9222 35.3013 47.0625 35.158 47.1705 34.9913C47.2785 34.8247 47.352 34.638 47.3866 34.4424C47.4211 34.2469 47.4161 34.0464 47.3718 33.8528C47.3274 33.6592 47.2447 33.4764 47.1284 33.3154C47.0122 33.1544 46.8648 33.0183 46.6951 32.9152C46.5253 32.8122 46.3366 32.7442 46.1401 32.7154C45.9436 32.6866 45.7433 32.6976 45.5511 32.7476C45.3589 32.7976 45.1786 32.8857 45.0211 33.0066H45.0226Z" fill="#0D1118"/>
<path d="M30.4134 25.4288C30.3195 25.258 30.1929 25.1073 30.0408 24.9853C29.8887 24.8634 29.7141 24.7726 29.5269 24.7182C29.3397 24.6637 29.1436 24.6467 28.9499 24.668C28.7561 24.6893 28.5684 24.7486 28.3976 24.8425L11.1595 34.3247C10.8711 34.4835 10.6436 34.7338 10.5129 35.036C10.3823 35.3383 10.3558 35.6754 10.4378 35.9944C10.5197 36.3133 10.7054 36.596 10.9656 36.7978C11.2258 36.9997 11.5457 37.1093 11.875 37.1094H28.2031C28.5968 37.1094 28.9744 36.953 29.2527 36.6746C29.5311 36.3962 29.6875 36.0187 29.6875 35.625C29.6875 35.2313 29.5311 34.8538 29.2527 34.5754C28.9744 34.297 28.5968 34.1406 28.2031 34.1406H17.6537L29.8255 27.4446C29.9965 27.3509 30.1474 27.2244 30.2695 27.0723C30.3916 26.9203 30.4825 26.7457 30.5371 26.5585C30.5917 26.3713 30.6088 26.1752 30.5876 25.9814C30.5664 25.7875 30.5072 25.5998 30.4134 25.4288Z" fill="#0D1118"/>
<path d="M83.8289 31.2088C83.7055 30.6159 83.1246 30.2353 82.5318 30.3587C81.9387 30.4822 81.5581 31.0629 81.6816 31.6559C81.7527 31.9974 81.6681 32.3476 81.4493 32.6165C81.3226 32.7722 81.0402 33.0336 80.572 33.0336H75.6201C75.0144 33.0336 74.5234 33.5246 74.5234 34.1303C74.5234 34.736 75.0144 35.227 75.6201 35.227H80.572C81.5771 35.227 82.5171 34.7799 83.151 34.0004C83.7881 33.217 84.0352 32.1995 83.8289 31.2088Z" fill="#0D1118"/>
<path d="M70.9759 22.1088C74.5789 22.4406 77.8564 24.3718 79.8976 27.4161C80.2349 27.9192 80.9162 28.0536 81.4192 27.7163C81.9223 27.3789 82.0567 26.6977 81.7194 26.1946C79.9198 23.5107 77.3066 21.5594 74.327 20.5789C76.1429 19.2174 77.3199 17.0481 77.3199 14.6091C77.3199 10.497 73.9744 7.15158 69.8624 7.15158C65.7503 7.15158 62.4049 10.497 62.4049 14.6091C62.4049 17.0497 63.5834 19.2203 65.4012 20.5815C63.7358 21.1298 62.173 21.9824 60.8054 23.1073C58.2977 25.17 56.5541 28.0472 55.8959 31.2088C55.6896 32.1995 55.9367 33.2169 56.5738 34.0003C57.2077 34.7799 58.1477 35.2269 59.1528 35.2269H63.9402C64.546 35.2269 65.0369 34.7359 65.0369 34.1302C65.0369 33.5245 64.546 33.0335 63.9402 33.0335H59.1527C58.6845 33.0335 58.4021 32.7723 58.2754 32.6165C58.0567 32.3475 57.972 31.9974 58.0431 31.6558C59.117 26.4976 63.4706 22.6519 68.6365 22.1209L66.5428 31.6462C66.4626 32.0115 66.574 32.3926 66.8385 32.6571L69.032 34.8508C69.2376 35.0566 69.5166 35.1721 69.8076 35.1721C70.0985 35.1721 70.3774 35.0565 70.5831 34.8508L72.7764 32.6571C73.0408 32.3925 73.1523 32.0115 73.072 31.6462L70.9759 22.1088ZM64.5983 14.6091C64.5983 11.7064 66.9597 9.34497 69.8624 9.34497C72.7651 9.34497 75.1265 11.7064 75.1265 14.6091C75.1265 17.4241 72.9054 19.7301 70.1237 19.8668C70.0367 19.8652 69.9496 19.8641 69.8624 19.8641C69.7768 19.8641 69.6913 19.8654 69.6058 19.8669C66.8219 19.7326 64.5983 17.4257 64.5983 14.6091ZM69.8075 32.5243L68.8141 31.5307L69.8075 27.0109L70.8008 31.5308L69.8075 32.5243Z" fill="#0D1118"/>
</svg>
