<svg width="95" height="95" viewBox="0 0 95 95" fill="none" xmlns="http://www.w3.org/2000/svg">
<path d="M31.6678 14.3055L31.1249 14.1698C30.9357 14.1225 30.7382 14.119 30.5474 14.1595C30.3566 14.1999 30.1776 14.2833 30.0239 14.4034C29.8701 14.5234 29.7458 14.6769 29.6603 14.8522C29.5748 15.0275 29.5303 15.2199 29.5303 15.415V27.8412C29.5303 33.5723 31.1719 39.1836 34.2607 44.0112C37.3495 48.8387 41.7564 52.6806 46.9601 55.0823C47.1287 55.1601 47.3122 55.2004 47.4979 55.2004C47.6836 55.2004 47.8671 55.1601 48.0358 55.0823C53.2394 52.6806 57.6463 48.8387 60.7352 44.0112C63.824 39.1836 65.4655 33.5723 65.4656 27.8412V15.415C65.4656 15.2199 65.4211 15.0275 65.3356 14.8522C65.2501 14.6769 65.1257 14.5234 64.972 14.4034C64.8183 14.2833 64.6392 14.1999 64.4484 14.1594C64.2577 14.119 64.0602 14.1225 63.8709 14.1698L63.328 14.3056C60.6481 14.9657 57.8368 14.8617 55.2131 14.0051C52.5893 13.1486 50.2581 11.574 48.4838 9.4598C48.3634 9.31525 48.2127 9.19895 48.0423 9.11914C47.8719 9.03933 47.6861 8.99796 47.4979 8.99796C47.3098 8.99796 47.124 9.03933 46.9536 9.11914C46.7832 9.19895 46.6325 9.31525 46.512 9.4598C44.7378 11.574 42.4066 13.1487 39.7828 14.0052C37.159 14.8617 34.3477 14.9657 31.6678 14.3055ZM47.4979 12.1891C49.4292 14.1433 51.7998 15.6074 54.412 16.459C57.1492 17.3538 60.0671 17.5482 62.8988 17.0242V27.8412C62.889 32.9787 61.4413 38.0109 58.7195 42.3683C55.9977 46.7256 52.1105 50.234 47.4979 52.4964C42.8854 50.234 38.9982 46.7256 36.2764 42.3683C33.5546 38.0109 32.1069 32.9787 32.0971 27.8412V17.0242C34.9288 17.5479 37.8466 17.3536 40.5838 16.459C43.196 15.6074 45.5667 14.1433 47.4979 12.1891Z" fill="#0D1118"/>
<path d="M37.2306 20.5486H34.6639V23.1152H37.2306V20.5486Z" fill="#0D1118"/>
<path d="M37.2307 25.6822H34.6639V29.7263C34.6661 33.7364 35.8302 37.66 38.0154 41.0224C40.2005 44.3848 43.3131 47.0421 46.9767 48.6728C47.1408 48.7457 47.3184 48.7834 47.4979 48.7834C47.6775 48.7834 47.8551 48.7457 48.0191 48.6728C51.6827 47.0421 54.7953 44.3848 56.9805 41.0224C59.1656 37.66 60.3297 33.7364 60.332 29.7263V20.5485C60.332 20.3535 60.2875 20.161 60.202 19.9857C60.1165 19.8105 59.9921 19.657 59.8384 19.537C59.6846 19.4169 59.5056 19.3335 59.3148 19.2931C59.124 19.2526 58.9265 19.2562 58.7373 19.3035C57.2736 19.6737 55.7511 19.7499 54.2578 19.5277C52.7645 19.3054 51.3301 18.7892 50.0377 18.0088L48.1582 16.8812L46.8377 19.0823L48.7171 20.21C51.431 21.8491 54.6223 22.5148 57.7651 22.0976V29.7263C57.7631 33.1422 56.7989 36.4885 54.9831 39.3818C53.1672 42.2751 50.5731 44.5984 47.4979 46.0856C44.4227 44.5984 41.8286 42.2751 40.0128 39.3818C38.1969 36.4885 37.2328 33.1422 37.2307 29.7263V25.6822Z" fill="#0D1118"/>
<path d="M47.4977 43.6494C48.2592 43.6494 49.0035 43.4236 49.6367 43.0005C50.2698 42.5775 50.7633 41.9762 51.0547 41.2727C51.3461 40.5692 51.4223 39.7951 51.2737 39.0483C51.1252 38.3014 50.7585 37.6154 50.2201 37.077C49.6817 36.5386 48.9956 36.1719 48.2488 36.0233C47.502 35.8748 46.7279 35.951 46.0244 36.2424C45.3209 36.5338 44.7196 37.0273 44.2966 37.6604C43.8735 38.2936 43.6477 39.0379 43.6477 39.7994C43.6489 40.8201 44.0549 41.7987 44.7766 42.5205C45.4984 43.2422 46.477 43.6482 47.4977 43.6494ZM47.4977 38.516C47.7515 38.516 47.9997 38.5913 48.2107 38.7323C48.4217 38.8733 48.5862 39.0738 48.6834 39.3083C48.7805 39.5428 48.8059 39.8008 48.7564 40.0497C48.7069 40.2987 48.5847 40.5274 48.4052 40.7068C48.2257 40.8863 47.997 41.0085 47.7481 41.0581C47.4991 41.1076 47.2411 41.0822 47.0066 40.985C46.7721 40.8879 46.5717 40.7234 46.4307 40.5124C46.2897 40.3013 46.2144 40.0532 46.2144 39.7994C46.2148 39.4591 46.3501 39.1329 46.5907 38.8924C46.8313 38.6518 47.1575 38.5164 47.4977 38.516Z" fill="#0D1118"/>
<path d="M44.944 33.5636C44.9877 33.8694 45.1402 34.1492 45.3736 34.3516C45.6069 34.5539 45.9055 34.6654 46.2144 34.6654H48.7811C49.09 34.6654 49.3885 34.5539 49.6219 34.3516C49.8552 34.1492 50.0078 33.8694 50.0515 33.5636L51.3348 24.5803C51.3608 24.3982 51.3474 24.2128 51.2955 24.0364C51.2435 23.86 51.1543 23.6968 51.0339 23.5579C50.9134 23.419 50.7645 23.3076 50.5972 23.2313C50.43 23.1549 50.2483 23.1154 50.0644 23.1154H44.9311C44.7472 23.1154 44.5655 23.1549 44.3982 23.2313C44.2309 23.3076 44.082 23.419 43.9616 23.5579C43.8411 23.6968 43.7519 23.86 43.7 24.0364C43.6481 24.2128 43.6346 24.3982 43.6606 24.5803L44.944 33.5636ZM48.5847 25.682L47.668 32.0987H47.3274L46.4108 25.682H48.5847Z" fill="#0D1118"/>
<path d="M84.7166 11.5647C84.7166 11.2243 84.5814 10.8978 84.3407 10.6572C84.1 10.4165 83.7736 10.2813 83.4332 10.2812H73.166C72.8256 10.2813 72.4992 10.4165 72.2585 10.6572C72.0178 10.8978 71.8826 11.2243 71.8826 11.5647V20.5485H68.0324V23.1153H71.8826V83.4352H64.1822V46.2165H61.6154V83.4352H53.9149V55.2003H51.3481V83.4352H43.6477V56.4837H41.0809V83.4352H33.3805V55.2003H38.5141V52.6335H32.0971C31.7567 52.6335 31.4303 52.7687 31.1896 53.0094C30.9489 53.2501 30.8137 53.5766 30.8137 53.9169V64.1842H21.8299C21.4895 64.1842 21.1631 64.3194 20.9224 64.5601C20.6817 64.8007 20.5465 65.1272 20.5465 65.4676V71.8846H11.5627C11.2223 71.8846 10.8958 72.0198 10.6552 72.2605C10.4145 72.5012 10.2793 72.8276 10.2793 73.168V83.4352H8.99586V86.002H86V83.4352H84.7166V11.5647ZM12.8461 74.4514H20.5465V83.4352H12.8461V74.4514ZM23.1133 66.751H30.8137V83.4352H23.1133V66.751ZM74.4494 83.4352V12.8481H82.1498V83.4352H74.4494Z" fill="#0D1118"/>
<path d="M24.701 43.9096L9.34957 59.314L11.1587 61.1294L26.5102 45.725L24.701 43.9096Z" fill="#0D1118"/>
<path d="M23.0412 53.8042C20.9254 53.8042 19.2036 55.532 19.2036 57.6551C19.2036 59.7782 20.9254 61.5059 23.0412 61.5059C25.157 61.5059 26.8788 59.7782 26.8788 57.6551C26.8788 55.532 25.157 53.8042 23.0412 53.8042ZM23.0412 58.9387C22.3364 58.9387 21.762 58.3636 21.762 57.6551C21.762 56.9465 22.3364 56.3714 23.0412 56.3714C23.7461 56.3714 24.3204 56.9465 24.3204 57.6551C24.3204 58.3636 23.7461 58.9387 23.0412 58.9387Z" fill="#0D1118"/>
<path d="M12.807 43.5347C10.6912 43.5347 8.96939 45.2625 8.96939 47.3856C8.96939 49.5087 10.6912 51.2365 12.807 51.2365C14.9228 51.2365 16.6446 49.5087 16.6446 47.3856C16.6446 45.2625 14.9228 43.5347 12.807 43.5347ZM12.807 48.6692C12.1022 48.6692 11.5278 48.0941 11.5278 47.3856C11.5278 46.677 12.1022 46.102 12.807 46.102C13.5119 46.102 14.0862 46.677 14.0862 47.3856C14.0862 48.0941 13.5119 48.6692 12.807 48.6692Z" fill="#0D1118"/>
</svg>
