<svg width="95" height="95" viewBox="0 0 95 95" fill="none" xmlns="http://www.w3.org/2000/svg">
<path d="M62.8539 11.3366C62.8539 10.6435 62.2923 10.0819 61.5992 10.0819H17.6624C16.9693 10.0819 16.4077 10.6435 16.4077 11.3366V16.7441C16.4077 17.4372 16.9693 17.9988 17.6624 17.9988H61.5994C62.2924 17.9988 62.854 17.4372 62.854 16.7441V11.3366H62.8539ZM60.3446 15.4895H18.9171V12.5912H60.3447V15.4895H60.3446Z" fill="#0D1118"/>
<path d="M61.5992 20.8972H28.8156C28.1226 20.8972 27.561 21.4588 27.561 22.1519C27.561 22.8449 28.1226 23.4065 28.8156 23.4065H61.5994C62.2924 23.4065 62.854 22.8449 62.854 22.1519C62.854 21.4588 62.2923 20.8972 61.5992 20.8972Z" fill="#0D1118"/>
<path d="M61.5992 26.3048H28.8156C28.1226 26.3048 27.561 26.8664 27.561 27.5595C27.561 28.2525 28.1226 28.8141 28.8156 28.8141H61.5994C62.2924 28.8141 62.854 28.2525 62.854 27.5595C62.854 26.8664 62.2923 26.3048 61.5992 26.3048Z" fill="#0D1118"/>
<path d="M62.8539 38.3746C62.8539 37.6815 62.2923 37.12 61.5992 37.12H28.8156C28.1226 37.12 27.561 37.6815 27.561 38.3746C27.561 39.0677 28.1226 39.6293 28.8156 39.6293H61.5994C62.2923 39.6293 62.8539 39.0677 62.8539 38.3746Z" fill="#0D1118"/>
<path d="M61.5992 31.7124H28.8156C28.1226 31.7124 27.561 32.274 27.561 32.9671C27.561 33.6601 28.1226 34.2217 28.8156 34.2217H61.5994C62.2924 34.2217 62.854 33.6601 62.854 32.9671C62.854 32.274 62.2923 31.7124 61.5992 31.7124Z" fill="#0D1118"/>
<path d="M44.0964 49.1899C44.0964 48.4969 43.5348 47.9353 42.8417 47.9353H28.8156C28.1226 47.9353 27.561 48.4969 27.561 49.1899C27.561 49.883 28.1226 50.4446 28.8156 50.4446H42.8417C43.5346 50.4446 44.0964 49.8828 44.0964 49.1899Z" fill="#0D1118"/>
<path d="M47.645 43.7822C47.645 43.0891 47.0835 42.5275 46.3904 42.5275H28.8156C28.1226 42.5275 27.561 43.0891 27.561 43.7822C27.561 44.4753 28.1226 45.0368 28.8156 45.0368H46.3905C47.0835 45.0368 47.645 44.4753 47.645 43.7822Z" fill="#0D1118"/>
<path d="M28.8156 61.2597H37.6029C38.296 61.2597 38.8576 60.6982 38.8576 60.0051C38.8576 59.312 38.296 58.7504 37.6029 58.7504H28.8156C28.1226 58.7504 27.561 59.312 27.561 60.0051C27.561 60.6982 28.1226 61.2597 28.8156 61.2597Z" fill="#0D1118"/>
<path d="M40.3786 54.5975C40.3786 53.9044 39.817 53.3428 39.1239 53.3428H28.8156C28.1226 53.3428 27.561 53.9044 27.561 54.5975C27.561 55.2906 28.1226 55.8522 28.8156 55.8522H39.1239C39.8168 55.8522 40.3786 55.2904 40.3786 54.5975Z" fill="#0D1118"/>
<path d="M28.8156 72.0749H37.941C38.6341 72.0749 39.1957 71.5133 39.1957 70.8202C39.1957 70.1272 38.6341 69.5656 37.941 69.5656H28.8156C28.1226 69.5656 27.561 70.1272 27.561 70.8202C27.561 71.5133 28.1226 72.0749 28.8156 72.0749Z" fill="#0D1118"/>
<path d="M28.8156 66.6673H37.096C37.7891 66.6673 38.3507 66.1058 38.3507 65.4127C38.3507 64.7196 37.7891 64.158 37.096 64.158H28.8156C28.1226 64.158 27.561 64.7196 27.561 65.4127C27.561 66.1058 28.1226 66.6673 28.8156 66.6673Z" fill="#0D1118"/>
<path d="M16.4077 27.5595C16.4077 28.2525 16.9693 28.8141 17.6624 28.8141H23.07C23.7631 28.8141 24.3246 28.2525 24.3246 27.5595V22.1519C24.3246 21.4588 23.7631 20.8972 23.07 20.8972H17.6624C16.9693 20.8972 16.4077 21.4588 16.4077 22.1519V27.5595ZM18.9171 23.4065H21.8153V26.3048H18.9171V23.4065Z" fill="#0D1118"/>
<path d="M16.4077 38.3746C16.4077 39.0677 16.9693 39.6293 17.6624 39.6293H23.07C23.7631 39.6293 24.3246 39.0677 24.3246 38.3746V32.9671C24.3246 32.274 23.7631 31.7124 23.07 31.7124H17.6624C16.9693 31.7124 16.4077 32.274 16.4077 32.9671V38.3746ZM18.9171 34.2217H21.8153V37.12H18.9171V34.2217Z" fill="#0D1118"/>
<path d="M16.4077 49.1899C16.4077 49.883 16.9693 50.4446 17.6624 50.4446H23.07C23.7631 50.4446 24.3246 49.883 24.3246 49.1899V43.7823C24.3246 43.0893 23.7631 42.5277 23.07 42.5277H17.6624C16.9693 42.5277 16.4077 43.0893 16.4077 43.7823V49.1899ZM18.9171 45.0368H21.8153V47.9351H18.9171V45.0368Z" fill="#0D1118"/>
<path d="M16.4077 60.0051C16.4077 60.6981 16.9693 61.2597 17.6624 61.2597H23.07C23.7631 61.2597 24.3246 60.6981 24.3246 60.0051V54.5975C24.3246 53.9044 23.7631 53.3428 23.07 53.3428H17.6624C16.9693 53.3428 16.4077 53.9044 16.4077 54.5975V60.0051ZM18.9171 55.8522H21.8153V58.7504H18.9171V55.8522Z" fill="#0D1118"/>
<path d="M16.4077 70.8203C16.4077 71.5133 16.9693 72.0749 17.6624 72.0749H23.07C23.7631 72.0749 24.3246 71.5133 24.3246 70.8203V65.4127C24.3246 64.7196 23.7631 64.158 23.07 64.158H17.6624C16.9693 64.158 16.4077 64.7196 16.4077 65.4127V70.8203ZM18.9171 66.6673H21.8153V69.5656H18.9171V66.6673Z" fill="#0D1118"/>
<path d="M81.796 74.5456C83.4288 71.4749 84.2953 68.0319 84.2953 64.4556C84.2953 59.068 82.3297 53.9822 78.7382 50.0173V41.9109C78.7382 41.2178 78.1766 40.6563 77.4835 40.6563C76.7905 40.6563 76.2289 41.2178 76.2289 41.9109V47.6517C75.4143 46.9965 74.5592 46.4051 73.6692 45.8805V17.3229H76.2289V36.0558C76.2289 36.7489 76.7905 37.3105 77.4835 37.3105C78.1766 37.3105 78.7382 36.7489 78.7382 36.0558V16.0683C78.7382 15.3752 78.1766 14.8136 77.4835 14.8136H73.6692V10.9986C73.6692 10.3056 73.1076 9.74397 72.4145 9.74397H68.2609V5.92898C68.2609 5.2359 67.6994 4.67432 67.0063 4.67432H12.2547C11.5616 4.67432 11 5.2359 11 5.92898V14.1261C11 14.8192 11.5616 15.3807 12.2547 15.3807C12.9477 15.3807 13.5093 14.8192 13.5093 14.1261V7.18363H65.7516V43.1286C64.7691 42.9929 63.7711 42.9225 62.762 42.9225C57.0103 42.9225 51.6029 45.1623 47.5357 49.2293C43.4686 53.2964 41.2287 58.7039 41.2287 64.4556C41.2287 69.1629 42.7298 73.6391 45.5041 77.3393H13.5093V19.9812C13.5093 19.2881 12.9477 18.7265 12.2547 18.7265C11.5616 18.7265 11 19.2881 11 19.9812V78.5938C11 79.2869 11.5616 79.8484 12.2547 79.8484H16.4077V84.0014C16.4077 84.6944 16.9693 85.256 17.6624 85.256H21.4772V89.071C21.4772 89.7641 22.0388 90.3257 22.7319 90.3257H77.4835C78.1766 90.3257 78.7382 89.7641 78.7382 89.071L78.6042 83.2617L81.796 74.5456ZM78.6042 83.2617V79.141C79.5184 78.2267 81.0712 75.5839 81.796 74.5456L78.6042 83.2617ZM68.2609 12.2533H71.1599V44.6165C70.2201 44.2185 69.2516 43.8886 68.2609 43.6288V12.2533ZM49.3102 51.0037C53.0189 47.2949 57.8904 45.4405 62.762 45.4405C67.6336 45.4405 72.5052 47.2949 76.2138 51.0037C79.807 54.5969 81.786 59.3741 81.786 64.4555C81.786 69.537 79.8072 74.3144 76.2138 77.9074C72.6206 81.5006 67.8436 83.4794 62.762 83.4794C57.6805 83.4794 52.9033 81.5007 49.3102 77.9074C45.7171 74.3142 43.7381 69.537 43.7381 64.4555C43.7381 59.3741 45.7169 54.5969 49.3102 51.0037ZM18.9171 79.8484H47.7065C48.85 80.9674 50.0878 81.9342 51.3952 82.7467H18.9171V79.8484ZM23.9866 87.8164V85.256H57.2057C57.2077 85.256 57.2089 85.2557 57.2109 85.2557C59.0273 85.7371 60.8946 85.9787 62.762 85.9787C66.2328 85.9787 71.6874 84.7692 76.2289 81.0541V86.8663V87.8164H23.9866Z" fill="#0D1118"/>
<path d="M62.762 80.5812C67.0694 80.5812 71.1189 78.9036 74.165 75.8576C80.2267 69.7958 80.4904 60.0575 74.7648 53.6875C74.3016 53.1724 73.5083 53.1296 72.9929 53.5932C72.4776 54.0565 72.4353 54.8497 72.8985 55.3651C77.7323 60.7429 77.5091 68.9649 72.3906 74.0834C69.8186 76.6556 66.3992 78.0722 62.762 78.0722C59.1252 78.0722 55.7057 76.6556 53.1336 74.0834C50.5622 71.5122 49.1461 68.0928 49.1461 64.4558C49.1461 60.8186 50.5622 57.3993 53.1336 54.8281C57.2034 50.7581 63.4267 49.6865 68.6193 52.161C69.2443 52.4586 69.9934 52.1938 70.2917 51.5681C70.5898 50.9426 70.3243 50.1939 69.6988 49.8958C63.5493 46.9654 56.1791 48.2339 51.359 53.0536C48.3139 56.099 46.6367 60.1483 46.6367 64.4558C46.6367 68.7631 48.3137 72.8125 51.359 75.8578C54.4053 78.9036 58.4549 80.5812 62.762 80.5812Z" fill="#0D1118"/>
<path d="M72.9765 76.492C73.2868 76.492 73.5971 76.3732 73.8347 76.138C74.3074 75.6653 74.3074 74.8968 73.8347 74.4241L53.2995 53.8884C52.8268 53.4157 52.0583 53.4157 51.5856 53.8884C51.1129 54.3611 51.1129 55.1296 51.5856 55.6024L72.1208 76.138C72.3559 76.3756 72.6662 76.492 72.9765 76.492Z" fill="#0D1118"/>
</svg>
