<svg width="42" height="42" viewBox="0 0 42 42" fill="none" xmlns="http://www.w3.org/2000/svg">
<rect x="4" y="4" width="34" height="34" rx="2" fill="#0D1118"/>
<rect x="10" y="10" width="22" height="22" rx="2" fill="white"/>
<path d="M21 17.528C20.3133 17.528 19.642 17.7316 19.0711 18.1131C18.5001 18.4946 18.0551 19.0369 17.7923 19.6713C17.5295 20.3057 17.4607 21.0039 17.5947 21.6774C17.7287 22.3509 18.0594 22.9695 18.5449 23.4551C19.0305 23.9406 19.6491 24.2713 20.3226 24.4053C20.9961 24.5393 21.6943 24.4705 22.3287 24.2077C22.9631 23.9449 23.5054 23.4999 23.8869 22.9289C24.2684 22.358 24.472 21.6867 24.472 21C24.472 20.5441 24.3822 20.0926 24.2077 19.6713C24.0332 19.2501 23.7775 18.8673 23.4551 18.5449C23.1327 18.2225 22.7499 17.9668 22.3287 17.7923C21.9074 17.6178 21.4559 17.528 21 17.528ZM34.902 14.098C34.8946 13.0169 34.6956 11.9456 34.314 10.934C34.033 10.1938 33.5982 9.52153 33.0383 8.96166C32.4785 8.40179 31.8062 7.967 31.066 7.686C30.0544 7.30445 28.9831 7.10537 27.902 7.098C26.096 7 25.564 7 21 7C16.436 7 15.904 7 14.098 7.098C13.0169 7.10537 11.9456 7.30445 10.934 7.686C10.1938 7.967 9.52153 8.40179 8.96166 8.96166C8.40179 9.52153 7.967 10.1938 7.686 10.934C7.30445 11.9456 7.10537 13.0169 7.098 14.098C7 15.904 7 16.436 7 21C7 25.564 7 26.096 7.098 27.902C7.11307 28.9869 7.31188 30.0615 7.686 31.08C7.96576 31.8169 8.40018 32.4852 8.96 33.04C9.51747 33.6032 10.1911 34.038 10.934 34.314C11.9456 34.6956 13.0169 34.8946 14.098 34.902C15.904 35 16.436 35 21 35C25.564 35 26.096 35 27.902 34.902C28.9831 34.8946 30.0544 34.6956 31.066 34.314C31.8089 34.038 32.4825 33.6032 33.04 33.04C33.5998 32.4852 34.0342 31.8169 34.314 31.08C34.6952 30.0634 34.8942 28.9877 34.902 27.902C35 26.096 35 25.564 35 21C35 16.436 35 15.904 34.902 14.098ZM31.346 25.298C31.3011 26.1619 31.1167 27.0129 30.8 27.818C30.5282 28.4896 30.1242 29.0996 29.6119 29.6119C29.0996 30.1242 28.4896 30.5282 27.818 30.8C27.0053 31.099 26.1496 31.2645 25.284 31.29H16.716C15.8504 31.2645 14.9947 31.099 14.182 30.8C13.4877 30.542 12.8608 30.1304 12.348 29.596C11.8407 29.0938 11.449 28.487 11.2 27.818C10.8998 27.0062 10.7388 26.1494 10.724 25.284V21V16.716C10.7388 15.8506 10.8998 14.9938 11.2 14.182C11.458 13.4877 11.8696 12.8608 12.404 12.348C12.9085 11.8435 13.5146 11.4521 14.182 11.2C14.9947 10.901 15.8504 10.7355 16.716 10.71H25.284C26.1496 10.7355 27.0053 10.901 27.818 11.2C28.5123 11.458 29.1392 11.8696 29.652 12.404C30.1593 12.9062 30.551 13.513 30.8 14.182C31.099 14.9947 31.2645 15.8504 31.29 16.716V21C31.29 23.884 31.388 24.178 31.346 25.284V25.298ZM29.106 14.882C28.9393 14.4298 28.6765 14.0191 28.3357 13.6783C27.9949 13.3375 27.5842 13.0747 27.132 12.908C26.5111 12.6928 25.8571 12.5885 25.2 12.6H16.8C16.1396 12.6065 15.4855 12.7297 14.868 12.964C14.4227 13.1231 14.0164 13.3752 13.676 13.7035C13.3357 14.0318 13.0691 14.4287 12.894 14.868C12.6907 15.4915 12.5914 16.1442 12.6 16.8V25.2C12.6139 25.8597 12.7369 26.5125 12.964 27.132C13.1307 27.5842 13.3935 27.9949 13.7343 28.3357C14.0751 28.6765 14.4858 28.9393 14.938 29.106C15.5353 29.3257 16.1639 29.4486 16.8 29.47H25.2C25.8604 29.4635 26.5145 29.3403 27.132 29.106C27.5842 28.9393 27.9949 28.6765 28.3357 28.3357C28.6765 27.9949 28.9393 27.5842 29.106 27.132C29.3403 26.5145 29.4635 25.8604 29.47 25.2V21V16.8C29.4704 16.1389 29.3469 15.4836 29.106 14.868V14.882ZM21 26.348C20.2983 26.348 19.6036 26.2096 18.9555 25.9406C18.3075 25.6717 17.7188 25.2776 17.2233 24.7808C16.7278 24.284 16.3352 23.6943 16.068 23.0455C15.8008 22.3968 15.6642 21.7016 15.666 21C15.666 19.9417 15.98 18.9071 16.5683 18.0274C17.1565 17.1476 17.9926 16.4621 18.9707 16.0578C19.9487 15.6534 21.0247 15.5483 22.0625 15.7558C23.1003 15.9633 24.0532 16.474 24.8006 17.2234C25.5479 17.9727 26.0562 18.9269 26.2609 19.9653C26.4657 21.0036 26.3578 22.0793 25.9509 23.0563C25.544 24.0333 24.8563 24.8676 23.975 25.4535C23.0937 26.0395 22.0583 26.3508 21 26.348ZM26.6 16.702C26.2905 16.6692 26.0041 16.5231 25.796 16.2918C25.5878 16.0604 25.4726 15.7602 25.4726 15.449C25.4726 15.1378 25.5878 14.8376 25.796 14.6062C26.0041 14.3749 26.2905 14.2288 26.6 14.196C26.9095 14.2288 27.1959 14.3749 27.404 14.6062C27.6122 14.8376 27.7274 15.1378 27.7274 15.449C27.7274 15.7602 27.6122 16.0604 27.404 16.2918C27.1959 16.5231 26.9095 16.6692 26.6 16.702Z" fill="#0D1118"/>
</svg>
