<svg width="13" height="14" viewBox="0 0 13 14" fill="none" xmlns="http://www.w3.org/2000/svg">
<path fill-rule="evenodd" clip-rule="evenodd" d="M2.6 3.69141C2.6 1.65596 4.34954 0 6.5 0C8.65046 0 10.4 1.65596 10.4 3.69141C10.4 5.72685 8.65046 7.38281 6.5 7.38281C4.34954 7.38281 2.6 5.72685 2.6 3.69141ZM3.46667 3.69141C3.46667 5.27453 4.82742 6.5625 6.5 6.5625C8.17258 6.5625 9.53333 5.27453 9.53333 3.69141C9.53333 2.10829 8.17258 0.820312 6.5 0.820312C4.82742 0.820312 3.46667 2.10829 3.46667 3.69141ZM5.29146 8.23047H7.70851C9.71016 8.23047 11.6826 9.10684 13 10.9774V14H0V10.9774C1.31933 9.10413 3.29229 8.23047 5.29146 8.23047ZM12.1333 13.1797H12.1334V11.2284C11.1213 9.86243 9.47697 9.05078 7.70854 9.05078H5.29149C3.52306 9.05078 1.87867 9.86243 0.866667 11.2284V13.1797H12.1333Z" fill="#2276F9"/>
</svg>
