<svg width="30" height="30" viewBox="0 0 30 30" fill="none" xmlns="http://www.w3.org/2000/svg">
<g clip-path="url(#clip0)">
<path d="M29.775 7.23746L28.6312 4.78121C28.4893 4.4793 28.2826 4.21229 28.026 3.99909C27.7694 3.78589 27.469 3.63171 27.1462 3.54746C23.5125 2.55746 19.3444 1.95183 15.0469 1.87683C10.8114 1.94259 6.60016 2.53078 2.50873 3.62808C2.19936 3.71808 1.65936 4.17183 1.37436 4.76996L0.224983 7.23933C0.0774443 7.54322 0.000526431 7.87653 -1.70897e-05 8.21433V9.84558L-0.00189209 9.92246C-0.00189209 10.6575 0.594358 11.2537 1.32936 11.2537L1.39123 11.2518H6.11248C6.48454 11.243 6.83838 11.089 7.09836 10.8227C7.35835 10.5564 7.50384 10.199 7.50373 9.82683L7.49998 9.72746V8.15621V8.13371C7.50012 7.92996 7.55134 7.7295 7.64895 7.55066C7.74656 7.37181 7.88745 7.22029 8.05873 7.10996C10.2015 5.9718 12.6208 5.45794 15.0412 5.62683C17.4564 5.4639 19.8693 5.97544 22.0106 7.10433C22.2787 7.28996 22.5019 7.66683 22.5019 8.09621V9.73121C22.4892 9.9228 22.5153 10.115 22.5788 10.2962C22.6422 10.4775 22.7416 10.644 22.871 10.7859C23.0005 10.9277 23.1572 11.0419 23.3319 11.1217C23.5065 11.2014 23.6955 11.2451 23.8875 11.25H28.6144L28.6725 11.2518C29.0256 11.2518 29.3642 11.1116 29.6138 10.8619C29.8635 10.6123 30.0037 10.2737 30.0037 9.92058L30.0019 9.83996V8.21246C30.0007 7.86988 29.9218 7.53203 29.7712 7.22433L29.775 7.23746Z" fill="white"/>
<path d="M22.5 15.5625C21.2797 13.9987 20.6189 12.071 20.6231 10.0875L20.625 9.93V9.375H18.75V11.25H11.25V9.375H9.375V9.99375L9.37687 10.1437C9.37958 12.1352 8.71333 14.0699 7.485 15.6375L1.875 22.5V28.125H28.125V22.5L22.5 15.5625ZM15 24.375C13.5082 24.375 12.0774 23.7824 11.0225 22.7275C9.96763 21.6726 9.375 20.2418 9.375 18.75C9.375 17.2582 9.96763 15.8274 11.0225 14.7725C12.0774 13.7176 13.5082 13.125 15 13.125C16.4918 13.125 17.9226 13.7176 18.9775 14.7725C20.0324 15.8274 20.625 17.2582 20.625 18.75C20.625 20.2418 20.0324 21.6726 18.9775 22.7275C17.9226 23.7824 16.4918 24.375 15 24.375Z" fill="white"/>
<path d="M18.75 18.7499C18.7613 19.2493 18.6727 19.7459 18.4894 20.2106C18.3062 20.6753 18.0319 21.0987 17.6828 21.4559C17.3336 21.8131 16.9166 22.097 16.4562 22.2908C15.9959 22.4847 15.5014 22.5846 15.0019 22.5847C14.5024 22.5848 14.0079 22.4852 13.5474 22.2916C13.087 22.0979 12.6698 21.8143 12.3205 21.4572C11.9712 21.1002 11.6967 20.6769 11.5132 20.2124C11.3297 19.7478 11.2408 19.2512 11.2519 18.7518C11.2736 17.772 11.6779 16.8396 12.3785 16.1542C13.079 15.4689 14.02 15.085 15 15.0847C15.9801 15.0845 16.9213 15.4679 17.6221 16.1529C18.323 16.838 18.7279 17.7701 18.75 18.7499Z" fill="white"/>
</g>
<defs>
<clipPath id="clip0">
<rect width="30" height="30" fill="white"/>
</clipPath>
</defs>
</svg>
