<svg width="13" height="11" viewBox="0 0 13 11" fill="none" xmlns="http://www.w3.org/2000/svg">
<path d="M11.0703 0H1.92969C0.865643 0 0 0.937557 0 2.09V8.91C0 10.0624 0.865643 11 1.92969 11H11.0703C12.1344 11 13 10.0624 13 8.91V6.6V4.4V2.09C13 0.937557 12.1344 0 11.0703 0ZM11.0703 10.12H1.92969C1.31366 10.12 0.8125 9.5772 0.8125 8.91V2.09C0.8125 1.4228 1.31366 0.88 1.92969 0.88H11.0703C11.6863 0.88 12.1875 1.4228 12.1875 2.09V3.96H9.95312C9.16911 3.96 8.53125 4.65086 8.53125 5.5C8.53125 6.34914 9.16911 7.04 9.95312 7.04H12.1875V8.91C12.1875 9.5772 11.6863 10.12 11.0703 10.12ZM12.1875 6.16H9.95312C9.61711 6.16 9.34375 5.86393 9.34375 5.5C9.34375 5.13607 9.61711 4.84 9.95312 4.84H12.1875V6.16Z" fill="#2276F9"/>
</svg>
