<svg width="12" height="13" viewBox="0 0 12 13" fill="none" xmlns="http://www.w3.org/2000/svg">
<path d="M6.76172 10.583H3.81738V13H2.13867V10.583H0.319336V9.19434H2.13867V7.99023H0.319336V6.61035H2.13867V0.203125H6.8584C8.22949 0.203125 9.31641 0.551758 10.1191 1.24902C10.9219 1.94629 11.3232 2.88965 11.3232 4.0791C11.3232 5.32715 10.9365 6.29102 10.1631 6.9707C9.39551 7.64453 8.30273 7.98438 6.88477 7.99023H3.81738V9.19434H6.76172V10.583ZM3.81738 6.61035H6.8584C7.7666 6.61035 8.45801 6.39648 8.93262 5.96875C9.40723 5.54102 9.64453 4.91699 9.64453 4.09668C9.64453 3.35254 9.39844 2.75195 8.90625 2.29492C8.41406 1.83203 7.74902 1.59766 6.91113 1.5918H3.81738V6.61035Z" fill="#828282"/>
</svg>
